<svg width="336" height="85" viewBox="0 0 336 85" fill="none" xmlns="http://www.w3.org/2000/svg">
<g filter="url(#filter0_d_30_894)">
<path d="M24.208 60L39.232 26.4H46.096L61.12 60H53.632L44.848 40.272C44.56 39.696 44.272 39.056 43.984 38.352C43.728 37.648 43.456 36.944 43.168 36.24C42.912 35.536 42.656 34.832 42.4 34.128C42.176 33.392 41.968 32.72 41.776 32.112L43.312 32.064C43.088 32.8 42.848 33.52 42.592 34.224C42.368 34.896 42.112 35.584 41.824 36.288C41.568 36.992 41.296 37.68 41.008 38.352C40.72 39.024 40.432 39.712 40.144 40.416L31.408 60H24.208ZM31.072 53.232L33.472 47.424H51.52L53.152 53.232H31.072ZM86.4809 60.48C85.0409 60.48 83.6649 60.304 82.3529 59.952C81.0729 59.568 79.9209 59.072 78.8969 58.464C77.9049 57.824 77.0729 57.136 76.4009 56.4C75.7609 55.664 75.3609 54.944 75.2009 54.24L77.2649 53.952L76.9289 59.904H70.4969V24.48H77.3609V40.56L75.4889 40.32C75.6809 39.584 76.0969 38.848 76.7369 38.112C77.3769 37.376 78.1929 36.704 79.1849 36.096C80.1769 35.488 81.2969 35.008 82.5449 34.656C83.8249 34.272 85.1689 34.08 86.5769 34.08C89.1369 34.08 91.4249 34.656 93.4409 35.808C95.4569 36.928 97.0569 38.48 98.2409 40.464C99.4249 42.416 100.017 44.688 100.017 47.28C100.017 49.84 99.4249 52.128 98.2409 54.144C97.0889 56.128 95.4889 57.68 93.4409 58.8C91.4249 59.92 89.1049 60.48 86.4809 60.48ZM85.0889 54.624C86.7529 54.624 88.1929 54.32 89.4089 53.712C90.6569 53.072 91.6169 52.208 92.2889 51.12C92.9929 50 93.3449 48.72 93.3449 47.28C93.3449 45.84 92.9929 44.576 92.2889 43.488C91.6169 42.368 90.6569 41.504 89.4089 40.896C88.1929 40.288 86.7529 39.984 85.0889 39.984C83.4569 39.984 82.0169 40.288 80.7689 40.896C79.5209 41.504 78.5449 42.368 77.8409 43.488C77.1689 44.576 76.8329 45.84 76.8329 47.28C76.8329 48.72 77.1689 50 77.8409 51.12C78.5449 52.208 79.5209 53.072 80.7689 53.712C82.0169 54.32 83.4569 54.624 85.0889 54.624ZM124.091 60.48C121.051 60.48 118.347 59.92 115.979 58.8C113.643 57.68 111.803 56.128 110.459 54.144C109.115 52.128 108.443 49.84 108.443 47.28C108.443 44.688 109.115 42.416 110.459 40.464C111.803 38.48 113.643 36.928 115.979 35.808C118.347 34.656 121.051 34.08 124.091 34.08C127.163 34.08 129.851 34.656 132.155 35.808C134.491 36.928 136.331 38.48 137.675 40.464C139.019 42.416 139.691 44.688 139.691 47.28C139.691 49.84 139.019 52.128 137.675 54.144C136.331 56.128 134.491 57.68 132.155 58.8C129.851 59.92 127.163 60.48 124.091 60.48ZM124.091 54.528C125.723 54.528 127.195 54.224 128.507 53.616C129.851 53.008 130.907 52.16 131.675 51.072C132.443 49.952 132.811 48.688 132.779 47.28C132.811 45.84 132.443 44.576 131.675 43.488C130.907 42.4 129.851 41.552 128.507 40.944C127.195 40.304 125.723 39.984 124.091 39.984C122.459 39.984 120.971 40.304 119.627 40.944C118.315 41.552 117.275 42.4 116.507 43.488C115.739 44.576 115.355 45.84 115.355 47.28C115.355 48.688 115.739 49.952 116.507 51.072C117.275 52.16 118.315 53.008 119.627 53.616C120.971 54.224 122.459 54.528 124.091 54.528ZM160.914 60.48C158.802 60.48 156.978 60.016 155.442 59.088C153.906 58.16 152.722 56.816 151.89 55.056C151.058 53.264 150.642 51.12 150.642 48.624V34.608H157.458V47.28C157.458 48.816 157.666 50.128 158.082 51.216C158.53 52.272 159.202 53.072 160.098 53.616C161.026 54.16 162.178 54.432 163.554 54.432C164.514 54.432 165.41 54.288 166.242 54C167.106 53.68 167.858 53.248 168.498 52.704C169.138 52.128 169.634 51.44 169.986 50.64C170.37 49.808 170.562 48.912 170.562 47.952V34.608H177.378V60H170.898L170.658 54.768L171.906 54.192C171.522 55.248 170.818 56.272 169.794 57.264C168.77 58.224 167.49 59.008 165.954 59.616C164.45 60.192 162.77 60.48 160.914 60.48ZM194.361 60V27.36H201.177V60H194.361ZM187.977 40.704V34.608H208.521V40.704H187.977ZM255.491 60.288C252.323 60.288 249.539 59.648 247.139 58.368C244.739 57.056 242.867 55.264 241.523 52.992C240.179 50.72 239.507 48.16 239.507 45.312V26.352H246.755V45.024C246.755 46.72 247.139 48.224 247.907 49.536C248.675 50.848 249.715 51.888 251.027 52.656C252.339 53.392 253.827 53.76 255.491 53.76C257.187 53.76 258.707 53.392 260.051 52.656C261.427 51.888 262.499 50.848 263.267 49.536C264.035 48.224 264.419 46.72 264.419 45.024V26.352H271.427V45.312C271.427 48.16 270.755 50.72 269.411 52.992C268.067 55.264 266.195 57.056 263.795 58.368C261.395 59.648 258.627 60.288 255.491 60.288ZM296.962 60.48C294.594 60.48 292.418 60.24 290.434 59.76C288.45 59.248 286.658 58.528 285.058 57.6C283.458 56.672 282.034 55.552 280.786 54.24L284.722 48.72C286.802 50.8 288.882 52.256 290.962 53.088C293.042 53.92 295.186 54.336 297.394 54.336C298.514 54.336 299.602 54.192 300.658 53.904C301.746 53.616 302.626 53.2 303.298 52.656C304.002 52.08 304.354 51.344 304.354 50.448C304.354 49.872 304.178 49.376 303.826 48.96C303.474 48.544 303.01 48.192 302.434 47.904C301.858 47.616 301.186 47.376 300.418 47.184C299.65 46.96 298.834 46.784 297.97 46.656C297.138 46.496 296.274 46.368 295.378 46.272C293.362 45.952 291.554 45.52 289.954 44.976C288.386 44.432 287.042 43.744 285.922 42.912C284.802 42.048 283.954 41.056 283.378 39.936C282.834 38.784 282.562 37.472 282.562 36C282.562 34.432 282.93 33.008 283.666 31.728C284.402 30.448 285.426 29.36 286.738 28.464C288.05 27.568 289.57 26.896 291.298 26.448C293.058 25.968 294.946 25.728 296.962 25.728C299.17 25.728 301.138 25.952 302.866 26.4C304.594 26.848 306.13 27.488 307.474 28.32C308.818 29.12 309.922 30.08 310.786 31.2L306.658 35.952C305.858 35.12 304.914 34.4 303.826 33.792C302.77 33.184 301.65 32.72 300.466 32.4C299.282 32.08 298.082 31.92 296.866 31.92C295.522 31.92 294.338 32.064 293.314 32.352C292.322 32.608 291.522 33.008 290.914 33.552C290.338 34.064 290.05 34.72 290.05 35.52C290.05 36.16 290.274 36.72 290.722 37.2C291.17 37.68 291.762 38.08 292.498 38.4C293.234 38.688 294.082 38.944 295.042 39.168C296.002 39.36 297.01 39.536 298.066 39.696C299.922 39.984 301.682 40.352 303.346 40.8C305.01 41.216 306.482 41.792 307.762 42.528C309.042 43.232 310.034 44.16 310.738 45.312C311.442 46.432 311.794 47.84 311.794 49.536C311.794 51.808 311.154 53.76 309.874 55.392C308.626 57.024 306.898 58.288 304.69 59.184C302.482 60.048 299.906 60.48 296.962 60.48Z" fill="#D9D9D9"/>
</g>
<defs>
<filter id="filter0_d_30_894" x="0.208008" y="0.47998" width="335.586" height="84" filterUnits="userSpaceOnUse" color-interpolation-filters="sRGB">
<feFlood flood-opacity="0" result="BackgroundImageFix"/>
<feColorMatrix in="SourceAlpha" type="matrix" values="0 0 0 0 0 0 0 0 0 0 0 0 0 0 0 0 0 0 127 0" result="hardAlpha"/>
<feOffset/>
<feGaussianBlur stdDeviation="12"/>
<feComposite in2="hardAlpha" operator="out"/>
<feColorMatrix type="matrix" values="0 0 0 0 1 0 0 0 0 1 0 0 0 0 1 0 0 0 0.25 0"/>
<feBlend mode="normal" in2="BackgroundImageFix" result="effect1_dropShadow_30_894"/>
<feBlend mode="normal" in="SourceGraphic" in2="effect1_dropShadow_30_894" result="shape"/>
</filter>
</defs>
</svg>
