<svg width="1920" height="398" viewBox="0 0 1920 398" fill="none" xmlns="http://www.w3.org/2000/svg">
    <path d="M1174.34 22.46L1077.13 355.16V369.16L1102.39 394.43" stroke="#595959" stroke-width="3" stroke-miterlimit="10"/>
    <path d="M1198.85 22.46L1104.77 355.16V369.16L1129.22 394.43" stroke="#595959" stroke-width="2.91" stroke-miterlimit="10"/>
    <path d="M1223.36 22.46L1132.42 355.16V369.16L1156.05 394.43" stroke="#595959" stroke-width="2.82" stroke-miterlimit="10"/>
    <path d="M1247.87 22.46L1160.06 355.16V369.16L1182.88 394.43" stroke="#595959" stroke-width="2.73" stroke-miterlimit="10"/>
    <path d="M1272.38 22.46L1187.71 355.16V369.16L1209.71 394.43" stroke="#595959" stroke-width="2.65" stroke-miterlimit="10"/>
    <path d="M1296.89 22.46L1215.35 355.16V369.16L1236.54 394.43" stroke="#595959" stroke-width="2.56" stroke-miterlimit="10"/>
    <path d="M1321.4 22.46L1243 355.16V369.16L1263.37 394.43" stroke="#595959" stroke-width="2.47" stroke-miterlimit="10"/>
    <path d="M1345.9 22.46L1270.64 355.16V369.16L1290.2 394.43" stroke="#595959" stroke-width="2.38" stroke-miterlimit="10"/>
    <path d="M1370.41 22.46L1298.29 355.16V369.16L1317.03 394.43" stroke="#595959" stroke-width="2.29" stroke-miterlimit="10"/>
    <path d="M1394.92 22.46L1325.93 355.16V369.16L1343.86 394.43" stroke="#595959" stroke-width="2.2" stroke-miterlimit="10"/>
    <path d="M1419.43 22.46L1353.58 355.16V369.16L1370.69 394.43" stroke="#595959" stroke-width="2.11" stroke-miterlimit="10"/>
    <path d="M1443.94 22.46L1381.22 355.16V369.16L1397.52 394.43" stroke="#595959" stroke-width="2.02" stroke-miterlimit="10"/>
    <path d="M1468.45 22.46L1408.87 355.16V369.16L1424.35 394.43" stroke="#595959" stroke-width="1.94" stroke-miterlimit="10"/>
    <path d="M1492.96 22.46L1436.51 355.16V369.16L1451.18 394.43" stroke="#595959" stroke-width="1.85" stroke-miterlimit="10"/>
    <path d="M1517.47 22.46L1464.16 355.16V369.16L1478.01 394.43" stroke="#595959" stroke-width="1.76" stroke-miterlimit="10"/>
    <path d="M1541.98 22.46L1491.8 355.16V369.16L1504.84 394.43" stroke="#595959" stroke-width="1.67" stroke-miterlimit="10"/>
    <path d="M1566.49 22.46L1519.45 355.16V369.16L1531.67 394.43" stroke="#595959" stroke-width="1.58" stroke-miterlimit="10"/>
    <path d="M1591 22.46L1547.09 355.16V369.16L1558.5 394.43" stroke="#595959" stroke-width="1.49" stroke-miterlimit="10"/>
    <path d="M1615.51 22.46L1574.74 355.16V369.16L1585.33 394.43" stroke="#595959" stroke-width="1.4" stroke-miterlimit="10"/>
    <path d="M1640.01 22.46L1602.38 355.16V369.16L1612.16 394.43" stroke="#595959" stroke-width="1.31" stroke-miterlimit="10"/>
    <path d="M1664.52 22.46L1630.03 355.16V369.16L1638.99 394.43" stroke="#595959" stroke-width="1.23" stroke-miterlimit="10"/>
    <path d="M1689.03 22.46L1657.67 355.16V369.16L1665.82 394.43" stroke="#595959" stroke-width="1.14" stroke-miterlimit="10"/>
    <path d="M1713.54 22.46L1685.32 355.16V369.16L1692.65 394.43" stroke="#595959" stroke-width="1.05" stroke-miterlimit="10"/>
    <path d="M1738.05 22.46L1712.96 355.16V369.16L1719.48 394.43" stroke="#595959" stroke-width="0.96" stroke-miterlimit="10"/>
    <path d="M1762.56 22.46L1740.61 355.16V369.16L1746.31 394.43" stroke="#595959" stroke-width="0.87" stroke-miterlimit="10"/>
    <path d="M1787.07 22.46L1768.25 355.16V369.16L1773.14 394.43" stroke="#595959" stroke-width="0.78" stroke-miterlimit="10"/>
    <path d="M1811.58 22.46L1795.9 355.16V369.16L1799.97 394.43" stroke="#595959" stroke-width="0.69" stroke-miterlimit="10"/>
    <path d="M1836.09 22.46L1823.54 355.16V369.16L1826.8 394.43" stroke="#595959" stroke-width="0.6" stroke-miterlimit="10"/>
    <path d="M1860.6 22.46L1851.19 355.16V369.16L1853.63 394.43" stroke="#595959" stroke-width="0.52" stroke-miterlimit="10"/>
    <path d="M1885.11 22.46L1878.83 355.16V369.16L1880.46 394.43" stroke="#595959" stroke-width="0.43" stroke-miterlimit="10"/>
    <path d="M1909.62 22.46L1906.48 355.16V369.16L1907.29 394.43" stroke="#595959" stroke-width="0.34" stroke-miterlimit="10"/>
    <path d="M744.91 22.46L842.13 355.16V369.16L816.86 394.43" stroke="#595959" stroke-width="3" stroke-miterlimit="10"/>
    <path d="M720.4 22.46L814.48 355.16V369.16L790.03 394.43" stroke="#595959" stroke-width="2.91" stroke-miterlimit="10"/>
    <path d="M695.89 22.46L786.83 355.16V369.16L763.2 394.43" stroke="#595959" stroke-width="2.82" stroke-miterlimit="10"/>
    <path d="M671.38 22.46L759.19 355.16V369.16L736.37 394.43" stroke="#595959" stroke-width="2.73" stroke-miterlimit="10"/>
    <path d="M646.87 22.46L731.54 355.16V369.16L709.54 394.43" stroke="#595959" stroke-width="2.65" stroke-miterlimit="10"/>
    <path d="M622.36 22.46L703.9 355.16V369.16L682.71 394.43" stroke="#595959" stroke-width="2.56" stroke-miterlimit="10"/>
    <path d="M597.85 22.46L676.25 355.16V369.16L655.88 394.43" stroke="#595959" stroke-width="2.47" stroke-miterlimit="10"/>
    <path d="M573.35 22.46L648.61 355.16V369.16L629.05 394.43" stroke="#595959" stroke-width="2.38" stroke-miterlimit="10"/>
    <path d="M548.84 22.46L620.96 355.16V369.16L602.22 394.43" stroke="#595959" stroke-width="2.29" stroke-miterlimit="10"/>
    <path d="M524.33 22.46L593.32 355.16V369.16L575.39 394.43" stroke="#595959" stroke-width="2.2" stroke-miterlimit="10"/>
    <path d="M499.82 22.46L565.67 355.16V369.16L548.56 394.43" stroke="#595959" stroke-width="2.11" stroke-miterlimit="10"/>
    <path d="M475.31 22.46L538.03 355.16V369.16L521.73 394.43" stroke="#595959" stroke-width="2.02" stroke-miterlimit="10"/>
    <path d="M450.8 22.46L510.38 355.16V369.16L494.9 394.43" stroke="#595959" stroke-width="1.94" stroke-miterlimit="10"/>
    <path d="M426.29 22.46L482.74 355.16V369.16L468.07 394.43" stroke="#595959" stroke-width="1.85" stroke-miterlimit="10"/>
    <path d="M401.78 22.46L455.09 355.16V369.16L441.24 394.43" stroke="#595959" stroke-width="1.76" stroke-miterlimit="10"/>
    <path d="M377.27 22.46L427.45 355.16V369.16L414.41 394.43" stroke="#595959" stroke-width="1.67" stroke-miterlimit="10"/>
    <path d="M352.76 22.46L399.8 355.16V369.16L387.58 394.43" stroke="#595959" stroke-width="1.58" stroke-miterlimit="10"/>
    <path d="M328.25 22.46L372.16 355.16V369.16L360.75 394.43" stroke="#595959" stroke-width="1.49" stroke-miterlimit="10"/>
    <path d="M303.74 22.46L344.51 355.16V369.16L333.92 394.43" stroke="#595959" stroke-width="1.4" stroke-miterlimit="10"/>
    <path d="M279.24 22.46L316.87 355.16V369.16L307.09 394.43" stroke="#595959" stroke-width="1.31" stroke-miterlimit="10"/>
    <path d="M254.73 22.46L289.22 355.16V369.16L280.26 394.43" stroke="#595959" stroke-width="1.23" stroke-miterlimit="10"/>
    <path d="M230.22 22.46L261.58 355.16V369.16L253.43 394.43" stroke="#595959" stroke-width="1.14" stroke-miterlimit="10"/>
    <path d="M205.71 22.46L233.93 355.16V369.16L226.6 394.43" stroke="#595959" stroke-width="1.05" stroke-miterlimit="10"/>
    <path d="M181.2 22.46L206.29 355.16V369.16L199.77 394.43" stroke="#595959" stroke-width="0.96" stroke-miterlimit="10"/>
    <path d="M156.69 22.46L178.64 355.16V369.16L172.94 394.43" stroke="#595959" stroke-width="0.87" stroke-miterlimit="10"/>
    <path d="M132.18 22.46L151 355.16V369.16L146.11 394.43" stroke="#595959" stroke-width="0.78" stroke-miterlimit="10"/>
    <path d="M107.67 22.46L123.35 355.16V369.16L119.28 394.43" stroke="#595959" stroke-width="0.69" stroke-miterlimit="10"/>
    <path d="M83.1602 22.46L95.7102 355.16V369.16L92.4501 394.43" stroke="#595959" stroke-width="0.6" stroke-miterlimit="10"/>
    <path d="M58.6499 22.46L68.0599 355.16V369.16L65.6199 394.43" stroke="#595959" stroke-width="0.52" stroke-miterlimit="10"/>
    <path d="M34.1401 22.46L40.4201 355.16V369.16L38.7901 394.43" stroke="#595959" stroke-width="0.43" stroke-miterlimit="10"/>
    <path d="M9.62988 22.46L12.7699 355.16V369.16L11.9599 394.43" stroke="#595959" stroke-width="0.34" stroke-miterlimit="10"/>
    <g filter="url(#filter0_f_200_217)">
        <path d="M919 394L942.431 365.228L942.421 22H976.579V365.228L1000 394" fill="url(#paint0_linear_200_217)"/>
    </g>
    <path d="M837.63 119.16H793.02L883.07 274.69" stroke="#717171" stroke-width="4" stroke-miterlimit="10"/>
    <path d="M959.34 22.46H809.63L906.84 355.16V369.16L881.57 394.43H959.5" stroke="#999999" stroke-width="4" stroke-miterlimit="10"/>
    <g filter="url(#filter1_d_200_217)">
        <path d="M1081.63 119.16H1126.23L1036.18 274.69" stroke="#717171" stroke-width="4" stroke-miterlimit="10" shape-rendering="crispEdges"/>
    </g>
    <path d="M959.91 22.46H1109.63L1012.41 355.16V369.16L1037.68 394.43H959.5" stroke="#999999" stroke-width="4" stroke-miterlimit="10"/>
    <g filter="url(#filter2_b_200_217)">
        <path d="M959.91 264.66H913.62L838.58 2H1080.67L1005.63 264.66H959.34" fill="url(#paint1_linear_200_217)"/>
        <path d="M959.91 264.66H913.62L838.58 2H1080.67L1005.63 264.66H959.34" stroke="white" stroke-width="4" stroke-miterlimit="10"/>
    </g>
    <path d="M926.72 116.648V89.384L928.592 91.88L920.672 95.864L919.04 89.624L928.208 84.92H933.824V116.648H926.72ZM919.76 119V112.52H940.16V119H919.76ZM961.367 119.48C958.519 119.48 955.959 119.096 953.687 118.328C951.415 117.528 949.559 116.344 948.119 114.776L952.391 111.032C953.479 112.088 954.807 112.904 956.375 113.48C957.975 114.056 959.703 114.344 961.559 114.344C962.167 114.344 962.775 114.312 963.383 114.248C963.991 114.152 964.535 114.008 965.015 113.816C965.495 113.592 965.879 113.336 966.167 113.048C966.455 112.728 966.599 112.344 966.599 111.896C966.599 111.16 966.103 110.584 965.111 110.168C964.535 109.976 963.783 109.784 962.855 109.592C961.959 109.368 960.967 109.16 959.879 108.968C957.959 108.584 956.295 108.184 954.887 107.768C953.479 107.32 952.311 106.744 951.383 106.04C950.583 105.368 949.959 104.616 949.511 103.784C949.095 102.952 948.887 101.96 948.887 100.808C948.887 99.592 949.207 98.52 949.847 97.592C950.487 96.632 951.351 95.816 952.439 95.144C953.527 94.472 954.791 93.96 956.231 93.608C957.671 93.256 959.191 93.08 960.791 93.08C962.327 93.08 963.847 93.224 965.351 93.512C966.855 93.8 968.279 94.248 969.623 94.856C970.999 95.432 972.167 96.152 973.127 97.016L969.623 101.192C968.887 100.648 968.007 100.136 966.983 99.656C965.991 99.176 964.935 98.808 963.815 98.552C962.727 98.264 961.655 98.12 960.599 98.12C959.927 98.12 959.303 98.168 958.727 98.264C958.151 98.328 957.607 98.456 957.095 98.648C956.615 98.808 956.231 99.048 955.943 99.368C955.655 99.656 955.511 100.008 955.511 100.424C955.543 100.712 955.639 101 955.799 101.288C955.991 101.576 956.247 101.816 956.567 102.008C957.079 102.328 957.831 102.616 958.823 102.872C959.847 103.128 961.031 103.384 962.375 103.64C964.359 104.024 966.087 104.472 967.559 104.984C969.031 105.464 970.215 106.056 971.111 106.76C971.879 107.336 972.439 107.992 972.791 108.728C973.143 109.464 973.319 110.312 973.319 111.272C973.319 112.904 972.807 114.344 971.783 115.592C970.759 116.84 969.335 117.8 967.511 118.472C965.687 119.144 963.639 119.48 961.367 119.48ZM987.033 119V86.36H993.849V119H987.033ZM980.649 99.704V93.608H1001.19V99.704H980.649Z" fill="black"/>
    <defs>
        <filter id="filter0_f_200_217" x="915" y="18" width="89" height="380" filterUnits="userSpaceOnUse" color-interpolation-filters="sRGB">
            <feFlood flood-opacity="0" result="BackgroundImageFix"/>
            <feBlend mode="normal" in="SourceGraphic" in2="BackgroundImageFix" result="shape"/>
            <feGaussianBlur stdDeviation="2" result="effect1_foregroundBlur_200_217"/>
        </filter>
        <filter id="filter1_d_200_217" x="1030.45" y="117.16" width="103.25" height="166.532" filterUnits="userSpaceOnUse" color-interpolation-filters="sRGB">
            <feFlood flood-opacity="0" result="BackgroundImageFix"/>
            <feColorMatrix in="SourceAlpha" type="matrix" values="0 0 0 0 0 0 0 0 0 0 0 0 0 0 0 0 0 0 127 0" result="hardAlpha"/>
            <feOffset dy="4"/>
            <feGaussianBlur stdDeviation="2"/>
            <feComposite in2="hardAlpha" operator="out"/>
            <feColorMatrix type="matrix" values="0 0 0 0 0 0 0 0 0 0 0 0 0 0 0 0 0 0 0.25 0"/>
            <feBlend mode="normal" in2="BackgroundImageFix" result="effect1_dropShadow_200_217"/>
            <feBlend mode="normal" in="SourceGraphic" in2="effect1_dropShadow_200_217" result="shape"/>
        </filter>
        <filter id="filter2_b_200_217" x="808.929" y="-27" width="301.393" height="320.66" filterUnits="userSpaceOnUse" color-interpolation-filters="sRGB">
            <feFlood flood-opacity="0" result="BackgroundImageFix"/>
            <feGaussianBlur in="BackgroundImageFix" stdDeviation="13.5"/>
            <feComposite in2="SourceAlpha" operator="in" result="effect1_backgroundBlur_200_217"/>
            <feBlend mode="normal" in="SourceGraphic" in2="effect1_backgroundBlur_200_217" result="shape"/>
        </filter>
        <linearGradient id="paint0_linear_200_217" x1="959.5" y1="22" x2="959.5" y2="394" gradientUnits="userSpaceOnUse">
            <stop stop-color="#FFD400"/>
            <stop offset="1" stop-color="#FF6700"/>
        </linearGradient>
        <linearGradient id="paint1_linear_200_217" x1="959.625" y1="2" x2="959.625" y2="264.66" gradientUnits="userSpaceOnUse">
            <stop stop-color="#D9D9D9"/>
            <stop offset="1" stop-color="#D9D9D9" stop-opacity="0.39"/>
        </linearGradient>
    </defs>
</svg>
