<svg width="44" height="51" viewBox="0 0 44 51" fill="none" xmlns="http://www.w3.org/2000/svg">
    <path d="M40.7816 15.4369C40.5729 15.0604 40.2151 14.8406 39.8171 14.8444C39.5797 14.8467 33.9342 14.9387 27.8322 18.2276C27.4001 18.4606 27.0875 18.9416 27.0165 19.483C26.8393 20.8355 26.5792 22.1567 26.2433 23.4101C25.7595 25.2158 25.0756 27.0461 24.2107 28.8503C24.0147 29.2593 23.9792 29.7339 24.1142 30.1399C24.2494 30.5459 24.5403 30.8392 24.905 30.9369L30.1072 32.3308C30.4841 32.4318 30.8965 32.3123 31.2208 32.0083C37.8194 25.8203 40.7538 17.1213 40.8755 16.7541C41.025 16.3021 40.9903 15.8134 40.7816 15.4369Z" fill="url(#paint0_linear_30_907)"/>
    <path d="M18.3558 27.2814C18.5088 25.2866 18.8318 23.3595 19.3156 21.5538C19.6515 20.3005 20.0868 19.0262 20.6096 17.7662C20.8188 17.262 20.7886 16.6891 20.5308 16.2713C16.8907 10.372 12.0475 7.46956 11.8431 7.34891C11.5003 7.14656 11.0805 7.15796 10.7115 7.37977C10.3426 7.6015 10.0681 8.00738 9.97179 8.47365C9.89349 8.85252 8.08542 17.8533 10.706 26.5114C10.8347 26.9368 11.1322 27.2466 11.5091 27.3476L16.7114 28.7415C17.0761 28.8392 17.4747 28.7306 17.7947 28.4466C18.1145 28.1625 18.3211 27.7337 18.3558 27.2814Z" fill="url(#paint1_linear_30_907)"/>
    <path d="M28.4718 4.96451C28.3499 4.54493 28.0613 4.23946 27.694 4.14105C27.3266 4.04261 26.924 4.16286 26.6087 4.4653C26.3222 4.73999 19.5624 11.3064 16.9367 21.1056C16.408 23.0786 16.054 25.1752 15.8843 27.337C15.8312 28.0146 16.1777 28.5985 16.719 28.7435L24.8974 30.9349C25.4387 31.0799 26.0307 30.7476 26.3235 30.1342C27.2575 28.1772 27.9991 26.1845 28.5278 24.2114C31.1535 14.4123 28.5825 5.34565 28.4718 4.96451Z" fill="url(#paint2_linear_30_907)"/>
    <path d="M21.5163 27.1823C20.8599 27.0064 20.4737 26.3193 20.6537 25.6476L22.2903 19.5394C22.4703 18.8678 23.1484 18.4658 23.8048 18.6417C24.4611 18.8176 24.8474 19.5047 24.6674 20.1764L23.0307 26.2845C22.8508 26.9563 22.1727 27.3581 21.5163 27.1823Z" fill="white"/>
    <path d="M31.6346 34.2724C31.4829 33.935 31.1916 33.6854 30.8391 33.591L10.2379 28.0709C9.88543 27.9765 9.50825 28.047 9.20831 28.2634C8.9083 28.4797 8.71634 28.8196 8.68432 29.1914L7.47698 43.2059C7.42481 43.8117 7.8044 44.3639 8.37879 44.5178L24.2256 48.764C24.8 48.9179 25.4049 48.6294 25.6626 48.0787L31.6242 35.3381C31.7824 35.0002 31.7862 34.6098 31.6346 34.2724Z" fill="#BCE4F1" fill-opacity="0.5"/>
    <g filter="url(#filter0_bi_30_907)">
        <path d="M35.3794 28.4469L8.88546 21.3479C8.1996 21.1641 7.50804 21.5209 7.34089 22.1447L5.82751 27.7927C5.66036 28.4165 6.08089 29.0712 6.76675 29.255L33.2607 36.3541C33.9466 36.5378 34.6381 36.1811 34.8053 35.5573L36.3187 29.9093C36.4858 29.2855 36.0653 28.6307 35.3794 28.4469Z" fill="#BCE4F1" fill-opacity="0.5"/>
    </g>
    <defs>
        <filter id="filter0_bi_30_907" x="1.79102" y="17.2996" width="38.5645" height="23.1028" filterUnits="userSpaceOnUse" color-interpolation-filters="sRGB">
            <feFlood flood-opacity="0" result="BackgroundImageFix"/>
            <feGaussianBlur in="BackgroundImageFix" stdDeviation="2"/>
            <feComposite in2="SourceAlpha" operator="in" result="effect1_backgroundBlur_30_907"/>
            <feBlend mode="normal" in="SourceGraphic" in2="effect1_backgroundBlur_30_907" result="shape"/>
            <feColorMatrix in="SourceAlpha" type="matrix" values="0 0 0 0 0 0 0 0 0 0 0 0 0 0 0 0 0 0 127 0" result="hardAlpha"/>
            <feOffset dx="0.2" dy="0.1"/>
            <feGaussianBlur stdDeviation="0.5"/>
            <feComposite in2="hardAlpha" operator="arithmetic" k2="-1" k3="1"/>
            <feColorMatrix type="matrix" values="0 0 0 0 1 0 0 0 0 1 0 0 0 0 1 0 0 0 0.6 0"/>
            <feBlend mode="normal" in2="shape" result="effect2_innerShadow_30_907"/>
        </filter>
        <linearGradient id="paint0_linear_30_907" x1="28.054" y1="17.7936" x2="39.475" y2="20.0874" gradientUnits="userSpaceOnUse">
            <stop stop-color="#0B5CD6"/>
            <stop offset="1" stop-color="#0085FF"/>
        </linearGradient>
        <linearGradient id="paint1_linear_30_907" x1="9.70141" y1="12.8761" x2="21.1225" y2="15.1699" gradientUnits="userSpaceOnUse">
            <stop stop-color="#0B5CD6"/>
            <stop offset="1" stop-color="#0085FF"/>
        </linearGradient>
        <linearGradient id="paint2_linear_30_907" x1="20.5835" y1="10.6388" x2="31.0916" y2="12.9761" gradientUnits="userSpaceOnUse">
            <stop stop-color="#0B5CD6"/>
            <stop offset="1" stop-color="#0085FF"/>
        </linearGradient>
    </defs>
</svg>
