<svg width="43" height="51" viewBox="0 0 43 51" fill="none" xmlns="http://www.w3.org/2000/svg">
    <path d="M2.36732 15.4369C2.57599 15.0604 2.93381 14.8406 3.33187 14.8444C3.56921 14.8467 9.21472 14.9387 15.3167 18.2276C15.7489 18.4606 16.0614 18.9416 16.1324 19.483C16.3096 20.8355 16.5698 22.1567 16.9056 23.4101C17.3894 25.2158 18.0733 27.0461 18.9382 28.8503C19.1343 29.2593 19.1697 29.7339 19.0347 30.1399C18.8996 30.5459 18.6086 30.8392 18.2439 30.9369L13.0417 32.3308C12.6648 32.4318 12.2524 32.3123 11.9281 32.0083C5.32954 25.8203 2.39515 17.1213 2.27344 16.7541C2.12388 16.3021 2.15865 15.8134 2.36732 15.4369Z" fill="url(#paint0_linear_30_914)"/>
    <path d="M24.7931 27.2814C24.6401 25.2866 24.3171 23.3595 23.8333 21.5538C23.4975 20.3005 23.0621 19.0262 22.5394 17.7662C22.3301 17.262 22.3603 16.6891 22.6181 16.2713C26.2582 10.372 31.1014 7.46956 31.3058 7.34891C31.6486 7.14656 32.0684 7.15796 32.4374 7.37977C32.8064 7.6015 33.0808 8.00738 33.1771 8.47365C33.2554 8.85252 35.0635 17.8533 32.443 26.5114C32.3142 26.9368 32.0167 27.2466 31.6398 27.3476L26.4376 28.7415C26.0729 28.8392 25.6742 28.7306 25.3542 28.4466C25.0344 28.1625 24.8278 27.7337 24.7931 27.2814Z" fill="url(#paint1_linear_30_914)"/>
    <path d="M14.6772 4.96451C14.799 4.54493 15.0876 4.23946 15.4549 4.14105C15.8223 4.04261 16.225 4.16286 16.5402 4.4653C16.8268 4.73999 23.5866 11.3064 26.2122 21.1056C26.7409 23.0786 27.095 25.1752 27.2646 27.337C27.3178 28.0146 26.9712 28.5985 26.4299 28.7435L18.2515 30.9349C17.7102 31.0799 17.1182 30.7476 16.8255 30.1342C15.8915 28.1772 15.1498 26.1845 14.6211 24.2114C11.9954 14.4123 14.5664 5.34565 14.6772 4.96451Z" fill="url(#paint2_linear_30_914)"/>
    <path d="M21.6326 27.1823C22.289 27.0064 22.6752 26.3193 22.4953 25.6476L20.8586 19.5394C20.6786 18.8678 20.0006 18.4658 19.3442 18.6417C18.6878 18.8176 18.3015 19.5047 18.4815 20.1764L20.1182 26.2845C20.2982 26.9563 20.9762 27.3581 21.6326 27.1823Z" fill="white"/>
    <path d="M11.5144 34.2724C11.666 33.935 11.9573 33.6854 12.3098 33.591L32.9111 28.0709C33.2635 27.9765 33.6407 28.047 33.9406 28.2634C34.2406 28.4797 34.4326 28.8196 34.4646 29.1914L35.6719 43.2059C35.7241 43.8117 35.3445 44.3639 34.7701 44.5178L18.9233 48.764C18.3489 48.9179 17.7441 48.6294 17.4864 48.0787L11.5247 35.3381C11.3665 35.0002 11.3627 34.6098 11.5144 34.2724Z" fill="#BCE4F1" fill-opacity="0.5"/>
    <g filter="url(#filter0_bi_30_914)">
        <path d="M7.7695 28.4469L34.2635 21.3479C34.9493 21.1641 35.6409 21.5209 35.808 22.1447L37.3214 27.7927C37.4886 28.4165 37.068 29.0712 36.3822 29.255L9.8882 36.3541C9.20234 36.5378 8.51079 36.1811 8.34364 35.5573L6.83026 29.9093C6.66311 29.2855 7.08364 28.6307 7.7695 28.4469Z" fill="#BCE4F1" fill-opacity="0.5"/>
    </g>
    <defs>
        <filter id="filter0_bi_30_914" x="2.79346" y="17.2996" width="38.5645" height="23.1028" filterUnits="userSpaceOnUse" color-interpolation-filters="sRGB">
            <feFlood flood-opacity="0" result="BackgroundImageFix"/>
            <feGaussianBlur in="BackgroundImageFix" stdDeviation="2"/>
            <feComposite in2="SourceAlpha" operator="in" result="effect1_backgroundBlur_30_914"/>
            <feBlend mode="normal" in="SourceGraphic" in2="effect1_backgroundBlur_30_914" result="shape"/>
            <feColorMatrix in="SourceAlpha" type="matrix" values="0 0 0 0 0 0 0 0 0 0 0 0 0 0 0 0 0 0 127 0" result="hardAlpha"/>
            <feOffset dx="0.2" dy="0.1"/>
            <feGaussianBlur stdDeviation="0.5"/>
            <feComposite in2="hardAlpha" operator="arithmetic" k2="-1" k3="1"/>
            <feColorMatrix type="matrix" values="0 0 0 0 1 0 0 0 0 1 0 0 0 0 1 0 0 0 0.6 0"/>
            <feBlend mode="normal" in2="shape" result="effect2_innerShadow_30_914"/>
        </filter>
        <linearGradient id="paint0_linear_30_914" x1="15.095" y1="17.7936" x2="3.67392" y2="20.0874" gradientUnits="userSpaceOnUse">
            <stop stop-color="#0B5CD6"/>
            <stop offset="1" stop-color="#0085FF"/>
        </linearGradient>
        <linearGradient id="paint1_linear_30_914" x1="33.4475" y1="12.8761" x2="22.0265" y2="15.1699" gradientUnits="userSpaceOnUse">
            <stop stop-color="#0B5CD6"/>
            <stop offset="1" stop-color="#0085FF"/>
        </linearGradient>
        <linearGradient id="paint2_linear_30_914" x1="22.5654" y1="10.6388" x2="12.0573" y2="12.9761" gradientUnits="userSpaceOnUse">
            <stop stop-color="#0B5CD6"/>
            <stop offset="1" stop-color="#0085FF"/>
        </linearGradient>
    </defs>
</svg>
