<svg width="33" height="27" viewBox="0 0 33 27" fill="none" xmlns="http://www.w3.org/2000/svg">
<g id="Union" filter="url(#filter0_b_179_251)">
<mask id="path-1-inside-1_179_251" fill="white">
<path fill-rule="evenodd" clip-rule="evenodd" d="M30.2729 15.225C33.715 11.7829 33.7171 6.19113 30.2729 2.74695L30.2709 2.74493C26.8287 -0.697233 21.2369 -0.699249 17.7928 2.74493L16.7491 3.7886L15.708 2.74751C12.2658 -0.694651 6.67409 -0.696669 3.22991 2.74751L3.22789 2.74953C-0.214278 6.19169 -0.216293 11.7834 3.22789 15.2276L13.1329 25.1327C14.9066 26.9063 17.6608 27.1042 19.6532 25.7262C19.9047 25.5526 20.1441 25.3539 20.3678 25.1301L30.2729 15.225Z"/>
</mask>
<path fill-rule="evenodd" clip-rule="evenodd" d="M30.2729 15.225C33.715 11.7829 33.7171 6.19113 30.2729 2.74695L30.2709 2.74493C26.8287 -0.697233 21.2369 -0.699249 17.7928 2.74493L16.7491 3.7886L15.708 2.74751C12.2658 -0.694651 6.67409 -0.696669 3.22991 2.74751L3.22789 2.74953C-0.214278 6.19169 -0.216293 11.7834 3.22789 15.2276L13.1329 25.1327C14.9066 26.9063 17.6608 27.1042 19.6532 25.7262C19.9047 25.5526 20.1441 25.3539 20.3678 25.1301L30.2729 15.225Z" fill="url(#paint0_linear_179_251)"/>
<path d="M30.2729 2.74695L28.8585 4.161L28.8587 4.16116L30.2729 2.74695ZM30.2729 15.225L31.6871 16.6393L30.2729 15.225ZM30.2709 2.74493L31.6852 1.33088L31.6851 1.33072L30.2709 2.74493ZM17.7928 2.74493L16.3786 1.33072L16.3786 1.33072L17.7928 2.74493ZM16.7491 3.7886L15.3349 5.20282L16.7491 6.61703L18.1633 5.20282L16.7491 3.7886ZM15.708 2.74751L14.2938 4.16173V4.16173L15.708 2.74751ZM3.22991 2.74751L1.81569 1.3333L3.22991 2.74751ZM3.22789 2.74953L1.81367 1.33532L3.22789 2.74953ZM3.22789 15.2276L4.6421 13.8134L3.22789 15.2276ZM13.1329 25.1327L11.7187 26.5469H11.7187L13.1329 25.1327ZM19.6532 25.7262L18.517 24.0803L18.5155 24.0813L19.6532 25.7262ZM20.3678 25.1301L18.9536 23.7159L20.3678 25.1301ZM28.8587 4.16116C31.5215 6.824 31.5201 11.1494 28.8587 13.8108L31.6871 16.6393C35.91 12.4163 35.9126 5.55826 31.6871 1.33274L28.8587 4.16116ZM28.8565 4.15898L28.8585 4.161L31.6873 1.3329L31.6852 1.33088L28.8565 4.15898ZM19.207 4.15915C21.8698 1.49631 26.1952 1.49773 28.8567 4.15914L31.6851 1.33072C27.4622 -2.8922 20.6041 -2.89481 16.3786 1.33072L19.207 4.15915ZM18.1633 5.20282L19.207 4.15915L16.3786 1.33072L15.3349 2.37439L18.1633 5.20282ZM14.2938 4.16173L15.3349 5.20282L18.1633 2.37439L17.1222 1.3333L14.2938 4.16173ZM4.64412 4.16173C7.30695 1.49889 11.6324 1.50031 14.2938 4.16173L17.1222 1.3333C12.8993 -2.88962 6.04122 -2.89223 1.81569 1.3333L4.64412 4.16173ZM4.6421 4.16374L4.64412 4.16173L1.81569 1.3333L1.81367 1.33532L4.6421 4.16374ZM4.6421 13.8134C1.97927 11.1506 1.98069 6.82516 4.6421 4.16374L1.81367 1.33532C-2.40924 5.55823 -2.41185 12.4163 1.81368 16.6418L4.6421 13.8134ZM14.5471 23.7185L4.6421 13.8134L1.81368 16.6418L11.7187 26.5469L14.5471 23.7185ZM18.5155 24.0813C17.3034 24.9196 15.6253 24.7966 14.5471 23.7185L11.7187 26.5469C14.1879 29.0161 18.0182 29.2887 20.7908 27.3711L18.5155 24.0813ZM18.9536 23.7159C18.8157 23.8538 18.6695 23.975 18.517 24.0803L20.7894 27.3721C21.1399 27.1301 21.4724 26.854 21.7821 26.5443L18.9536 23.7159ZM28.8587 13.8108L18.9536 23.7159L21.7821 26.5443L31.6871 16.6393L28.8587 13.8108Z" fill="url(#paint1_linear_179_251)" mask="url(#path-1-inside-1_179_251)"/>
</g>
<defs>
<filter id="filter0_b_179_251" x="-17.3545" y="-17.8374" width="68.21" height="62.4674" filterUnits="userSpaceOnUse" color-interpolation-filters="sRGB">
<feFlood flood-opacity="0" result="BackgroundImageFix"/>
<feGaussianBlur in="BackgroundImageFix" stdDeviation="9"/>
<feComposite in2="SourceAlpha" operator="in" result="effect1_backgroundBlur_179_251"/>
<feBlend mode="normal" in="SourceGraphic" in2="effect1_backgroundBlur_179_251" result="shape"/>
</filter>
<linearGradient id="paint0_linear_179_251" x1="26.4115" y1="25.9883" x2="14.1395" y2="1.94626" gradientUnits="userSpaceOnUse">
<stop stop-color="#FF0000" stop-opacity="0.77"/>
<stop offset="1" stop-color="#FF0000"/>
</linearGradient>
<linearGradient id="paint1_linear_179_251" x1="2.91915" y1="2.24416" x2="24.346" y2="30.125" gradientUnits="userSpaceOnUse">
<stop stop-color="white"/>
<stop offset="1" stop-color="white" stop-opacity="0"/>
</linearGradient>
</defs>
</svg>
