<svg width="1872" height="179" viewBox="0 0 1872 179" fill="none" xmlns="http://www.w3.org/2000/svg">
<path d="M114.54 176H113.54V177H114.54V176ZM114.54 22V21H113.54V22H114.54ZM147.54 22H148.54V21H147.54V22ZM147.54 176V177H148.54V176H147.54ZM0.360003 176H-0.639997V177H0.360003V176ZM0.360003 22V21H-0.639997V22H0.360003ZM33.36 22H34.36V21H33.36V22ZM33.36 176V177H34.36V176H33.36ZM13.56 114.62L12.5601 114.605L12.5452 115.62H13.56V114.62ZM14 84.7V83.7H13.0146L13.0001 84.6853L14 84.7ZM131.48 84.7H132.48V83.7H131.48V84.7ZM131.48 114.62V115.62H132.48V114.62H131.48ZM115.54 176V22H113.54V176H115.54ZM114.54 23H147.54V21H114.54V23ZM146.54 22V176H148.54V22H146.54ZM147.54 175H114.54V177H147.54V175ZM1.36 176V22H-0.639997V176H1.36ZM0.360003 23H33.36V21H0.360003V23ZM32.36 22V176H34.36V22H32.36ZM33.36 175H0.360003V177H33.36V175ZM14.5599 114.635L14.9999 84.7147L13.0001 84.6853L12.5601 114.605L14.5599 114.635ZM14 85.7H131.48V83.7H14V85.7ZM130.48 84.7V114.62H132.48V84.7H130.48ZM131.48 113.62H13.56V115.62H131.48V113.62ZM231.869 170.5L231.436 171.402L231.441 171.404L231.869 170.5ZM206.569 149.16L205.737 149.715L205.741 149.721L206.569 149.16ZM206.569 86.46L207.392 87.0271L207.397 87.0208L206.569 86.46ZM231.869 65.12L232.301 66.0217L232.306 66.0192L231.869 65.12ZM306.009 65.12L305.562 66.0144L305.569 66.0181L305.576 66.0217L306.009 65.12ZM331.309 86.46L330.481 87.0209L330.485 87.0271L331.309 86.46ZM331.309 149.16L332.137 149.721L332.141 149.715L331.309 149.16ZM306.009 170.5L305.576 169.598L305.572 169.601L306.009 170.5ZM289.289 146.74L288.877 145.829L288.868 145.833L289.289 146.74ZM303.809 135.08L304.626 135.657L304.633 135.646L303.809 135.08ZM308.869 117.7L307.869 117.678L307.868 117.7L307.869 117.723L308.869 117.7ZM289.289 88.66L288.85 89.5588L288.863 89.5651L288.877 89.5711L289.289 88.66ZM248.589 88.66L249.009 89.5674L249.019 89.5629L248.589 88.66ZM234.289 100.32L235.106 100.897L234.289 100.32ZM234.289 135.08L233.464 135.646L233.472 135.657L234.289 135.08ZM248.589 146.74L248.168 147.647L248.177 147.651L248.589 146.74ZM269.049 177.2C255.24 177.2 242.996 174.657 232.296 169.596L231.441 171.404C242.448 176.61 254.991 179.2 269.049 179.2V177.2ZM232.301 169.598C221.741 164.535 213.449 157.534 207.397 148.599L205.741 149.721C212.008 158.973 220.583 166.198 231.436 171.402L232.301 169.598ZM207.401 148.605C201.357 139.539 198.329 129.248 198.329 117.7H196.329C196.329 129.619 199.461 140.301 205.737 149.715L207.401 148.605ZM198.329 117.7C198.329 106.003 201.358 95.7913 207.392 87.0271L205.745 85.8929C199.459 95.022 196.329 105.637 196.329 117.7H198.329ZM207.397 87.0208C213.449 78.086 221.741 71.0849 232.301 66.0217L231.436 64.2183C220.583 69.4218 212.008 76.6474 205.741 85.8992L207.397 87.0208ZM232.306 66.0192C243.004 60.8151 255.244 58.2 269.049 58.2V56.2C254.987 56.2 242.44 58.8649 231.431 64.2208L232.306 66.0192ZM269.049 58.2C283.003 58.2 295.165 60.816 305.562 66.0144L306.456 64.2256C295.733 58.864 283.254 56.2 269.049 56.2V58.2ZM305.576 66.0217C316.137 71.0849 324.428 78.086 330.481 87.0208L332.137 85.8992C325.869 76.6474 317.294 69.4218 306.441 64.2183L305.576 66.0217ZM330.485 87.0271C336.519 95.7913 339.549 106.003 339.549 117.7H341.549C341.549 105.637 338.418 95.022 332.132 85.8929L330.485 87.0271ZM339.549 117.7C339.549 129.248 336.521 139.539 330.477 148.605L332.141 149.715C338.417 140.301 341.549 129.619 341.549 117.7H339.549ZM330.481 148.599C324.428 157.534 316.137 164.535 305.576 169.598L306.441 171.402C317.294 166.198 325.869 158.973 332.137 149.721L330.481 148.599ZM305.572 169.601C295.172 174.656 283.007 177.2 269.049 177.2V179.2C283.25 179.2 295.725 176.611 306.446 171.399L305.572 169.601ZM269.049 151.92C276.655 151.92 283.548 150.502 289.709 147.647L288.868 145.833C283.003 148.551 276.402 149.92 269.049 149.92V151.92ZM289.701 147.651C296.005 144.799 300.992 140.804 304.626 135.657L302.992 134.503C299.585 139.329 294.892 143.108 288.877 145.829L289.701 147.651ZM304.633 135.646C308.277 130.333 310.02 124.332 309.868 117.677L307.869 117.723C308.011 123.975 306.381 129.561 302.984 134.514L304.633 135.646ZM309.868 117.722C310.02 110.927 308.279 104.919 304.626 99.7433L302.992 100.897C306.378 105.694 308.011 111.273 307.869 117.678L309.868 117.722ZM304.626 99.7433C300.992 94.5958 296.005 90.6009 289.701 87.7489L288.877 89.5711C294.892 92.2925 299.585 96.0708 302.992 100.897L304.626 99.7433ZM289.727 87.7612C283.562 84.7538 276.663 83.26 269.049 83.26V85.26C276.395 85.26 282.989 86.6995 288.85 89.5588L289.727 87.7612ZM269.049 83.26C261.435 83.26 254.466 84.7539 248.159 87.7571L249.019 89.5629C255.032 86.6994 261.703 85.26 269.049 85.26V83.26ZM248.168 87.7527C242.01 90.6064 237.101 94.6015 233.472 99.7433L235.106 100.897C238.516 96.0652 243.141 92.2869 249.009 89.5673L248.168 87.7527ZM233.472 99.7433C229.823 104.913 228.009 110.911 228.009 117.7H230.009C230.009 111.289 231.715 105.701 235.106 100.897L233.472 99.7433ZM228.009 117.7C228.009 124.347 229.825 130.339 233.464 135.646L235.113 134.514C231.712 129.554 230.009 123.959 230.009 117.7H228.009ZM233.472 135.657C237.101 140.799 242.01 144.794 248.168 147.647L249.009 145.833C243.141 143.113 238.516 139.335 235.106 134.503L233.472 135.657ZM248.177 147.651C254.479 150.502 261.442 151.92 269.049 151.92V149.92C261.696 149.92 255.018 148.551 249.001 145.829L248.177 147.651ZM409.545 176L408.602 176.335L408.839 177H409.545V176ZM368.185 59.62V58.62H366.768L367.242 59.9549L368.185 59.62ZM401.185 59.62L402.139 59.3224L401.92 58.62H401.185V59.62ZM426.485 140.8L426.394 141.796L427.885 141.931L427.439 140.502L426.485 140.8ZM421.645 140.36L420.735 139.944L420.148 141.228L421.554 141.356L421.645 140.36ZM451.125 75.9V74.9H450.482L450.215 75.4841L451.125 75.9ZM472.025 75.9L472.928 75.4714L472.657 74.9H472.025V75.9ZM502.605 140.36L502.704 141.355L504.116 141.214L503.508 139.931L502.605 140.36ZM498.205 140.8L497.254 140.491L496.78 141.947L498.304 141.795L498.205 140.8ZM524.605 59.62V58.62H523.878L523.654 59.3107L524.605 59.62ZM557.165 59.62L558.102 59.9674L558.602 58.62H557.165V59.62ZM514.045 176V177H514.74L514.982 176.347L514.045 176ZM490.945 176L490.032 176.409L490.297 177H490.945V176ZM456.845 99.88L456.781 98.882L455.343 98.9738L455.932 100.289L456.845 99.88ZM467.185 99.22L468.096 99.6324L468.782 98.116L467.121 98.222L467.185 99.22ZM432.425 176V177H433.07L433.336 176.412L432.425 176ZM410.487 175.665L369.127 59.2851L367.242 59.9549L408.602 176.335L410.487 175.665ZM368.185 60.62H401.185V58.62H368.185V60.62ZM400.23 59.9175L425.53 141.098L427.439 140.502L402.139 59.3224L400.23 59.9175ZM426.575 139.804L421.735 139.364L421.554 141.356L426.394 141.796L426.575 139.804ZM422.554 140.776L452.034 76.3159L450.215 75.4841L420.735 139.944L422.554 140.776ZM451.125 76.9H472.025V74.9H451.125V76.9ZM471.121 76.3286L501.701 140.789L503.508 139.931L472.928 75.4714L471.121 76.3286ZM502.505 139.365L498.105 139.805L498.304 141.795L502.704 141.355L502.505 139.365ZM499.156 141.109L525.555 59.9293L523.654 59.3107L497.254 140.491L499.156 141.109ZM524.605 60.62H557.165V58.62H524.605V60.62ZM556.227 59.2726L513.107 175.653L514.982 176.347L558.102 59.9674L556.227 59.2726ZM514.045 175H490.945V177H514.045V175ZM491.857 175.591L457.757 99.4712L455.932 100.289L490.032 176.409L491.857 175.591ZM456.908 100.878L467.248 100.218L467.121 98.222L456.781 98.882L456.908 100.878ZM466.274 98.8076L431.514 175.588L433.336 176.412L468.096 99.6324L466.274 98.8076ZM432.425 175H409.545V177H432.425V175ZM729.583 176H728.583V177H729.583V176ZM729.583 51.7H730.583V50.7H729.583V51.7ZM675.903 51.7H674.903V52.7H675.903V51.7ZM675.903 22V21H674.903V22H675.903ZM817.363 22H818.363V21H817.363V22ZM817.363 51.7V52.7H818.363V51.7H817.363ZM762.583 51.7V50.7H761.583V51.7H762.583ZM762.583 176V177H763.583V176H762.583ZM730.583 176V51.7H728.583V176H730.583ZM729.583 50.7H675.903V52.7H729.583V50.7ZM676.903 51.7V22H674.903V51.7H676.903ZM675.903 23H817.363V21H675.903V23ZM816.363 22V51.7H818.363V22H816.363ZM817.363 50.7H762.583V52.7H817.363V50.7ZM761.583 51.7V176H763.583V51.7H761.583ZM762.583 175H729.583V177H762.583V175ZM864.584 170.5L864.151 171.402L864.156 171.404L864.584 170.5ZM839.284 149.16L838.452 149.715L838.456 149.721L839.284 149.16ZM839.284 86.46L840.107 87.0271L840.112 87.0208L839.284 86.46ZM864.584 65.12L865.016 66.0217L865.021 66.0192L864.584 65.12ZM938.724 65.12L938.276 66.0144L938.284 66.0181L938.291 66.0217L938.724 65.12ZM964.024 86.46L963.196 87.0209L963.2 87.0271L964.024 86.46ZM964.024 149.16L964.852 149.721L964.856 149.715L964.024 149.16ZM938.724 170.5L938.291 169.598L938.286 169.601L938.724 170.5ZM922.004 146.74L921.591 145.829L921.583 145.833L922.004 146.74ZM936.524 135.08L937.341 135.657L937.348 135.646L936.524 135.08ZM941.584 117.7L940.584 117.678L940.583 117.7L940.584 117.723L941.584 117.7ZM922.004 88.66L921.565 89.5588L921.578 89.5651L921.591 89.5711L922.004 88.66ZM881.304 88.66L881.724 89.5674L881.734 89.5629L881.304 88.66ZM867.004 100.32L867.821 100.897L867.004 100.32ZM867.004 135.08L866.179 135.646L866.187 135.657L867.004 135.08ZM881.304 146.74L880.883 147.647L880.891 147.651L881.304 146.74ZM901.764 177.2C887.954 177.2 875.711 174.657 865.011 169.596L864.156 171.404C875.163 176.61 887.706 179.2 901.764 179.2V177.2ZM865.016 169.598C854.456 164.535 846.164 157.534 840.112 148.599L838.456 149.721C844.723 158.973 853.298 166.198 864.151 171.402L865.016 169.598ZM840.116 148.605C834.072 139.539 831.044 129.248 831.044 117.7H829.044C829.044 129.619 832.176 140.301 838.452 149.715L840.116 148.605ZM831.044 117.7C831.044 106.003 834.073 95.7913 840.107 87.0271L838.46 85.8929C832.174 95.022 829.044 105.637 829.044 117.7H831.044ZM840.112 87.0208C846.164 78.086 854.456 71.0849 865.016 66.0217L864.151 64.2183C853.298 69.4218 844.723 76.6474 838.456 85.8992L840.112 87.0208ZM865.021 66.0192C875.719 60.8151 887.958 58.2 901.764 58.2V56.2C887.702 56.2 875.155 58.8649 864.146 64.2208L865.021 66.0192ZM901.764 58.2C915.718 58.2 927.88 60.816 938.276 66.0144L939.171 64.2256C928.448 58.864 915.969 56.2 901.764 56.2V58.2ZM938.291 66.0217C948.852 71.0849 957.143 78.086 963.196 87.0208L964.852 85.8992C958.584 76.6474 950.009 69.4218 939.156 64.2183L938.291 66.0217ZM963.2 87.0271C969.234 95.7913 972.264 106.003 972.264 117.7H974.264C974.264 105.637 971.133 95.022 964.847 85.8929L963.2 87.0271ZM972.264 117.7C972.264 129.248 969.236 139.539 963.192 148.605L964.856 149.715C971.132 140.301 974.264 129.619 974.264 117.7H972.264ZM963.196 148.599C957.143 157.534 948.852 164.535 938.291 169.598L939.156 171.402C950.009 166.198 958.584 158.973 964.852 149.721L963.196 148.599ZM938.286 169.601C927.887 174.656 915.722 177.2 901.764 177.2V179.2C915.965 179.2 928.44 176.611 939.161 171.399L938.286 169.601ZM901.764 151.92C909.37 151.92 916.263 150.502 922.424 147.647L921.583 145.833C915.718 148.551 909.117 149.92 901.764 149.92V151.92ZM922.416 147.651C928.72 144.799 933.707 140.804 937.341 135.657L935.707 134.503C932.3 139.329 927.607 143.108 921.591 145.829L922.416 147.651ZM937.348 135.646C940.992 130.333 942.735 124.332 942.583 117.677L940.584 117.723C940.726 123.975 939.096 129.561 935.699 134.514L937.348 135.646ZM942.583 117.722C942.734 110.927 940.994 104.919 937.341 99.7433L935.707 100.897C939.093 105.694 940.726 111.273 940.584 117.678L942.583 117.722ZM937.341 99.7433C933.707 94.5958 928.72 90.6009 922.416 87.7489L921.591 89.5711C927.607 92.2925 932.3 96.0708 935.707 100.897L937.341 99.7433ZM922.442 87.7612C916.277 84.7538 909.377 83.26 901.764 83.26V85.26C909.11 85.26 915.704 86.6995 921.565 89.5588L922.442 87.7612ZM901.764 83.26C894.149 83.26 887.18 84.7539 880.874 87.7571L881.734 89.5629C887.747 86.6994 894.418 85.26 901.764 85.26V83.26ZM880.883 87.7527C874.725 90.6064 869.816 94.6015 866.187 99.7433L867.821 100.897C871.231 96.0652 875.856 92.2869 881.724 89.5673L880.883 87.7527ZM866.187 99.7433C862.538 104.913 860.724 110.911 860.724 117.7H862.724C862.724 111.289 864.429 105.701 867.821 100.897L866.187 99.7433ZM860.724 117.7C860.724 124.347 862.54 130.339 866.179 135.646L867.828 134.514C864.427 129.554 862.724 123.959 862.724 117.7H860.724ZM866.187 135.657C869.816 140.799 874.725 144.794 880.883 147.647L881.724 145.833C875.856 143.113 871.231 139.335 867.821 134.503L866.187 135.657ZM880.891 147.651C887.194 150.502 894.157 151.92 901.764 151.92V149.92C894.411 149.92 887.733 148.551 881.716 145.829L880.891 147.651ZM1115.83 176H1114.83V177H1115.83V176ZM1115.83 22V21H1114.83V22H1115.83ZM1145.97 22L1146.78 21.4155L1146.48 21H1145.97V22ZM1209.99 110.88L1209.98 111.88L1211.96 111.904L1210.8 110.296L1209.99 110.88ZM1191.73 110.66L1190.92 110.073L1189.79 111.637L1191.72 111.66L1191.73 110.66ZM1255.97 22V21H1255.46L1255.16 21.4133L1255.97 22ZM1285.67 22H1286.67V21H1285.67V22ZM1285.67 176V177H1286.67V176H1285.67ZM1253.33 176H1252.33V177H1253.33V176ZM1254.21 87.12L1255.21 87.1755V87.1747L1254.21 87.12ZM1257.73 54.78L1258.68 54.4752L1256.74 54.6199L1257.73 54.78ZM1261.25 65.78L1262.05 66.3836L1262.36 65.9697L1262.2 65.4752L1261.25 65.78ZM1207.79 136.4V137.4H1208.29L1208.59 137.004L1207.79 136.4ZM1193.27 136.4L1192.47 137.001L1192.77 137.4H1193.27V136.4ZM1140.03 65.56L1139.08 65.2322L1138.91 65.7352L1139.23 66.1608L1140.03 65.56ZM1143.77 54.78L1144.76 54.6156L1142.82 54.4522L1143.77 54.78ZM1147.29 86.46L1146.29 86.5155L1147.29 86.46ZM1148.17 176V177H1149.17V176H1148.17ZM1116.83 176V22H1114.83V176H1116.83ZM1115.83 23H1145.97V21H1115.83V23ZM1145.16 22.5844L1209.18 111.464L1210.8 110.296L1146.78 21.4155L1145.16 22.5844ZM1210 109.88L1191.74 109.66L1191.72 111.66L1209.98 111.88L1210 109.88ZM1192.54 111.247L1256.78 22.5867L1255.16 21.4133L1190.92 110.073L1192.54 111.247ZM1255.97 23H1285.67V21H1255.97V23ZM1284.67 22V176H1286.67V22H1284.67ZM1285.67 175H1253.33V177H1285.67V175ZM1254.33 176V121.88H1252.33V176H1254.33ZM1254.33 121.88C1254.33 109.282 1254.62 97.7139 1255.21 87.1755L1253.21 87.0645C1252.62 97.6461 1252.33 109.252 1252.33 121.88H1254.33ZM1255.21 87.1747C1255.79 76.5042 1256.96 65.7594 1258.72 54.9401L1256.74 54.6199C1254.98 65.5073 1253.8 76.3224 1253.21 87.0653L1255.21 87.1747ZM1256.78 55.0848L1260.3 66.0848L1262.2 65.4752L1258.68 54.4752L1256.78 55.0848ZM1260.45 65.1764L1206.99 135.796L1208.59 137.004L1262.05 66.3836L1260.45 65.1764ZM1207.79 135.4H1193.27V137.4H1207.79V135.4ZM1194.07 135.799L1140.83 64.9592L1139.23 66.1608L1192.47 137.001L1194.07 135.799ZM1140.97 65.8878L1144.71 55.1078L1142.82 54.4522L1139.08 65.2322L1140.97 65.8878ZM1142.78 54.9444C1144.54 65.4688 1145.71 75.9924 1146.29 86.5155L1148.29 86.4045C1147.7 75.8076 1146.52 65.2112 1144.76 54.6156L1142.78 54.9444ZM1146.29 86.5155C1146.88 97.0533 1147.17 108.841 1147.17 121.88H1149.17C1149.17 108.812 1148.88 96.9867 1148.29 86.4045L1146.29 86.5155ZM1147.17 121.88V176H1149.17V121.88H1147.17ZM1148.17 175H1115.83V177H1148.17V175ZM1350.76 176H1349.76V177H1350.76V176ZM1350.76 59.62V58.62H1349.76V59.62H1350.76ZM1382 59.62H1383V58.62H1382V59.62ZM1382 176V177H1383V176H1382ZM1352.08 5.27999L1352.75 6.01848L1352.75 6.01715L1352.08 5.27999ZM1380.24 5.06L1379.56 5.79848L1379.57 5.80665L1379.58 5.8146L1380.24 5.06ZM1380.02 29.7L1379.36 28.9474L1379.35 28.9544L1379.34 28.9615L1380.02 29.7ZM1351.76 176V59.62H1349.76V176H1351.76ZM1350.76 60.62H1382V58.62H1350.76V60.62ZM1381 59.62V176H1383V59.62H1381ZM1382 175H1350.76V177H1382V175ZM1366.16 33.32C1360.3 33.32 1355.87 31.8929 1352.73 29.1654L1351.42 30.6746C1355.03 33.8137 1359.99 35.32 1366.16 35.32V33.32ZM1352.73 29.1654C1349.62 26.4622 1348.02 22.5848 1348.02 17.38H1346.02C1346.02 23.0285 1347.78 27.5111 1351.42 30.6746L1352.73 29.1654ZM1348.02 17.38C1348.02 12.6455 1349.6 8.89043 1352.75 6.01848L1351.4 4.54151C1347.8 7.82954 1346.02 12.1411 1346.02 17.38H1348.02ZM1352.75 6.01715C1356.05 2.99611 1360.48 1.43999 1366.16 1.43999V-0.560009C1360.1 -0.560009 1355.14 1.11055 1351.4 4.54284L1352.75 6.01715ZM1366.16 1.43999C1372 1.43999 1376.42 2.93425 1379.56 5.79848L1380.91 4.32151C1377.3 1.02573 1372.34 -0.560009 1366.16 -0.560009V1.43999ZM1379.58 5.8146C1382.69 8.52317 1384.3 12.3317 1384.3 17.38H1386.3C1386.3 11.8683 1384.52 7.46349 1380.89 4.30539L1379.58 5.8146ZM1384.3 17.38C1384.3 22.2566 1382.64 26.0772 1379.36 28.9474L1380.67 30.4526C1384.43 27.1628 1386.3 22.7701 1386.3 17.38H1384.3ZM1379.34 28.9615C1376.2 31.8297 1371.85 33.32 1366.16 33.32V35.32C1372.2 35.32 1377.08 33.7303 1380.69 30.4385L1379.34 28.9615ZM1449.33 176H1448.33V177H1449.33V176ZM1449.33 59.62V58.62H1448.33V59.62H1449.33ZM1479.25 59.62L1480.25 59.5892L1480.22 58.62H1479.25V59.62ZM1480.13 88.22L1480.4 89.1835L1481.15 88.9735L1481.13 88.1892L1480.13 88.22ZM1472.21 90.42L1471.27 90.061L1470.56 91.9152L1472.48 91.3835L1472.21 90.42ZM1482.55 74.36L1483.28 75.0454L1483.28 75.0401L1483.29 75.0348L1482.55 74.36ZM1499.93 62.04L1500.34 62.953L1500.34 62.9491L1499.93 62.04ZM1549.21 63.36L1548.7 64.2238L1548.71 64.2282L1549.21 63.36ZM1570.99 176V177H1571.99V176H1570.99ZM1539.97 176H1538.97V177H1539.97V176ZM1536.45 96.58L1535.58 97.0761L1535.58 97.083L1535.59 97.0898L1536.45 96.58ZM1526.77 87.12L1526.3 88.0015L1526.77 87.12ZM1512.25 84.04V85.04H1512.26L1512.27 85.0397L1512.25 84.04ZM1499.27 86.46L1499.65 87.3861L1499.27 86.46ZM1489.15 93.06L1489.84 93.7859L1489.85 93.7767L1489.86 93.7671L1489.15 93.06ZM1482.77 101.86L1483.68 102.274L1482.77 101.86ZM1480.57 176V177H1481.57V176H1480.57ZM1450.33 176V59.62H1448.33V176H1450.33ZM1449.33 60.62H1479.25V58.62H1449.33V60.62ZM1478.25 59.6507L1479.13 88.2507L1481.13 88.1892L1480.25 59.5892L1478.25 59.6507ZM1479.86 87.2565L1471.94 89.4565L1472.48 91.3835L1480.4 89.1835L1479.86 87.2565ZM1473.14 90.779C1475.29 85.1935 1478.66 79.9486 1483.28 75.0454L1481.82 73.6746C1477.05 78.7447 1473.53 84.2065 1471.27 90.061L1473.14 90.779ZM1483.29 75.0348C1487.88 70.011 1493.56 65.9819 1500.34 62.953L1499.52 61.127C1492.51 64.2581 1486.6 68.4423 1481.81 73.6852L1483.29 75.0348ZM1500.34 62.9491C1507.25 59.7859 1514.73 58.2 1522.81 58.2V56.2C1514.46 56.2 1506.69 57.8408 1499.51 61.1309L1500.34 62.9491ZM1522.81 58.2C1533.24 58.2 1541.86 60.229 1548.7 64.2238L1549.71 62.4962C1542.48 58.2777 1533.49 56.2 1522.81 56.2V58.2ZM1548.71 64.2282C1555.73 68.238 1561.02 73.8122 1564.59 80.9672L1566.38 80.0728C1562.63 72.5611 1557.06 66.6954 1549.7 62.4918L1548.71 64.2282ZM1564.59 80.9672C1568.18 88.1367 1569.99 96.5581 1569.99 106.26H1571.99C1571.99 96.3086 1570.13 87.5699 1566.38 80.0728L1564.59 80.9672ZM1569.99 106.26V176H1571.99V106.26H1569.99ZM1570.99 175H1539.97V177H1570.99V175ZM1540.97 176V110.88H1538.97V176H1540.97ZM1540.97 110.88C1540.97 105.165 1539.76 100.214 1537.31 96.0702L1535.59 97.0898C1537.83 100.866 1538.97 105.448 1538.97 110.88H1540.97ZM1537.32 96.0839C1534.88 91.8167 1531.52 88.5286 1527.24 86.2385L1526.3 88.0015C1530.23 90.1114 1533.32 93.1299 1535.58 97.0761L1537.32 96.0839ZM1527.24 86.2385C1522.95 83.9417 1517.93 82.89 1512.22 83.0403L1512.27 85.0397C1517.71 84.8967 1522.37 85.8983 1526.3 88.0015L1527.24 86.2385ZM1512.25 83.04C1507.44 83.04 1502.98 83.8672 1498.89 85.5339L1499.65 87.3861C1503.47 85.8261 1507.67 85.04 1512.25 85.04V83.04ZM1498.89 85.5339C1494.82 87.1932 1491.33 89.4642 1488.44 92.3529L1489.86 93.7671C1492.54 91.0824 1495.8 88.9534 1499.65 87.3861L1498.89 85.5339ZM1488.46 92.334C1485.59 95.0553 1483.38 98.0927 1481.86 101.446L1483.68 102.274C1485.09 99.174 1487.14 96.3447 1489.84 93.7859L1488.46 92.334ZM1481.86 101.446C1480.34 104.79 1479.57 108.157 1479.57 111.54H1481.57C1481.57 108.47 1482.27 105.383 1483.68 102.274L1481.86 101.446ZM1479.57 111.54V176H1481.57V111.54H1479.57ZM1480.57 175H1465.17V177H1480.57V175ZM1465.17 175C1465.16 175 1465.15 175 1465.14 175C1465.13 175 1465.13 175 1465.12 175C1465.11 175 1465.1 175 1465.09 175C1465.08 175 1465.07 175 1465.07 175C1465.06 175 1465.05 175 1465.04 175C1465.03 175 1465.02 175 1465.01 175C1465.01 175 1465 175 1464.99 175C1464.98 175 1464.97 175 1464.96 175C1464.95 175 1464.95 175 1464.94 175C1464.93 175 1464.92 175 1464.91 175C1464.9 175 1464.89 175 1464.89 175C1464.88 175 1464.87 175 1464.86 175C1464.85 175 1464.84 175 1464.83 175C1464.83 175 1464.82 175 1464.81 175C1464.8 175 1464.79 175 1464.78 175C1464.78 175 1464.77 175 1464.76 175C1464.75 175 1464.74 175 1464.73 175C1464.72 175 1464.72 175 1464.71 175C1464.7 175 1464.69 175 1464.68 175C1464.67 175 1464.67 175 1464.66 175C1464.65 175 1464.64 175 1464.63 175C1464.62 175 1464.61 175 1464.61 175C1464.6 175 1464.59 175 1464.58 175C1464.57 175 1464.56 175 1464.56 175C1464.55 175 1464.54 175 1464.53 175C1464.52 175 1464.51 175 1464.5 175C1464.5 175 1464.49 175 1464.48 175C1464.47 175 1464.46 175 1464.45 175C1464.45 175 1464.44 175 1464.43 175C1464.42 175 1464.41 175 1464.4 175C1464.4 175 1464.39 175 1464.38 175C1464.37 175 1464.36 175 1464.35 175C1464.35 175 1464.34 175 1464.33 175C1464.32 175 1464.31 175 1464.3 175C1464.29 175 1464.29 175 1464.28 175C1464.27 175 1464.26 175 1464.25 175C1464.24 175 1464.24 175 1464.23 175C1464.22 175 1464.21 175 1464.2 175C1464.19 175 1464.19 175 1464.18 175C1464.17 175 1464.16 175 1464.15 175C1464.14 175 1464.14 175 1464.13 175C1464.12 175 1464.11 175 1464.1 175C1464.09 175 1464.09 175 1464.08 175C1464.07 175 1464.06 175 1464.05 175C1464.04 175 1464.04 175 1464.03 175C1464.02 175 1464.01 175 1464 175C1464 175 1463.99 175 1463.98 175C1463.97 175 1463.96 175 1463.95 175C1463.95 175 1463.94 175 1463.93 175C1463.92 175 1463.91 175 1463.9 175C1463.9 175 1463.89 175 1463.88 175C1463.87 175 1463.86 175 1463.85 175C1463.85 175 1463.84 175 1463.83 175C1463.82 175 1463.81 175 1463.81 175C1463.8 175 1463.79 175 1463.78 175C1463.77 175 1463.76 175 1463.76 175C1463.75 175 1463.74 175 1463.73 175C1463.72 175 1463.71 175 1463.71 175C1463.7 175 1463.69 175 1463.68 175C1463.67 175 1463.67 175 1463.66 175C1463.65 175 1463.64 175 1463.63 175C1463.62 175 1463.62 175 1463.61 175C1463.6 175 1463.59 175 1463.58 175C1463.58 175 1463.57 175 1463.56 175C1463.55 175 1463.54 175 1463.53 175C1463.53 175 1463.52 175 1463.51 175C1463.5 175 1463.49 175 1463.49 175C1463.48 175 1463.47 175 1463.46 175C1463.45 175 1463.45 175 1463.44 175C1463.43 175 1463.42 175 1463.41 175C1463.4 175 1463.4 175 1463.39 175C1463.38 175 1463.37 175 1463.36 175C1463.36 175 1463.35 175 1463.34 175C1463.33 175 1463.32 175 1463.32 175C1463.31 175 1463.3 175 1463.29 175C1463.28 175 1463.28 175 1463.27 175C1463.26 175 1463.25 175 1463.24 175C1463.23 175 1463.23 175 1463.22 175C1463.21 175 1463.2 175 1463.19 175C1463.19 175 1463.18 175 1463.17 175C1463.16 175 1463.15 175 1463.15 175C1463.14 175 1463.13 175 1463.12 175C1463.11 175 1463.11 175 1463.1 175C1463.09 175 1463.08 175 1463.07 175C1463.07 175 1463.06 175 1463.05 175C1463.04 175 1463.03 175 1463.03 175C1463.02 175 1463.01 175 1463 175C1462.99 175 1462.99 175 1462.98 175C1462.97 175 1462.96 175 1462.95 175C1462.95 175 1462.94 175 1462.93 175C1462.92 175 1462.91 175 1462.91 175C1462.9 175 1462.89 175 1462.88 175C1462.87 175 1462.87 175 1462.86 175C1462.85 175 1462.84 175 1462.83 175C1462.83 175 1462.82 175 1462.81 175C1462.8 175 1462.79 175 1462.79 175C1462.78 175 1462.77 175 1462.76 175C1462.75 175 1462.75 175 1462.74 175C1462.73 175 1462.72 175 1462.71 175C1462.71 175 1462.7 175 1462.69 175C1462.68 175 1462.67 175 1462.67 175C1462.66 175 1462.65 175 1462.64 175C1462.64 175 1462.63 175 1462.62 175C1462.61 175 1462.6 175 1462.6 175C1462.59 175 1462.58 175 1462.57 175C1462.56 175 1462.56 175 1462.55 175C1462.54 175 1462.53 175 1462.52 175C1462.52 175 1462.51 175 1462.5 175C1462.49 175 1462.49 175 1462.48 175C1462.47 175 1462.46 175 1462.45 175C1462.45 175 1462.44 175 1462.43 175C1462.42 175 1462.41 175 1462.41 175C1462.4 175 1462.39 175 1462.38 175C1462.38 175 1462.37 175 1462.36 175C1462.35 175 1462.34 175 1462.34 175C1462.33 175 1462.32 175 1462.31 175C1462.31 175 1462.3 175 1462.29 175C1462.28 175 1462.27 175 1462.27 175C1462.26 175 1462.25 175 1462.24 175C1462.23 175 1462.23 175 1462.22 175C1462.21 175 1462.2 175 1462.2 175C1462.19 175 1462.18 175 1462.17 175C1462.16 175 1462.16 175 1462.15 175C1462.14 175 1462.13 175 1462.13 175C1462.12 175 1462.11 175 1462.1 175C1462.1 175 1462.09 175 1462.08 175C1462.07 175 1462.06 175 1462.06 175C1462.05 175 1462.04 175 1462.03 175C1462.03 175 1462.02 175 1462.01 175C1462 175 1461.99 175 1461.99 175C1461.98 175 1461.97 175 1461.96 175C1461.96 175 1461.95 175 1461.94 175C1461.93 175 1461.93 175 1461.92 175C1461.91 175 1461.9 175 1461.89 175C1461.89 175 1461.88 175 1461.87 175C1461.86 175 1461.86 175 1461.85 175C1461.84 175 1461.83 175 1461.83 175C1461.82 175 1461.81 175 1461.8 175C1461.79 175 1461.79 175 1461.78 175C1461.77 175 1461.76 175 1461.76 175C1461.75 175 1461.74 175 1461.73 175C1461.73 175 1461.72 175 1461.71 175C1461.7 175 1461.69 175 1461.69 175C1461.68 175 1461.67 175 1461.66 175C1461.66 175 1461.65 175 1461.64 175C1461.63 175 1461.63 175 1461.62 175C1461.61 175 1461.6 175 1461.6 175C1461.59 175 1461.58 175 1461.57 175C1461.57 175 1461.56 175 1461.55 175C1461.54 175 1461.54 175 1461.53 175C1461.52 175 1461.51 175 1461.5 175C1461.5 175 1461.49 175 1461.48 175C1461.47 175 1461.47 175 1461.46 175C1461.45 175 1461.44 175 1461.44 175C1461.43 175 1461.42 175 1461.41 175C1461.41 175 1461.4 175 1461.39 175C1461.38 175 1461.38 175 1461.37 175C1461.36 175 1461.35 175 1461.35 175C1461.34 175 1461.33 175 1461.32 175C1461.32 175 1461.31 175 1461.3 175C1461.29 175 1461.29 175 1461.28 175C1461.27 175 1461.26 175 1461.26 175C1461.25 175 1461.24 175 1461.23 175C1461.23 175 1461.22 175 1461.21 175C1461.2 175 1461.2 175 1461.19 175C1461.18 175 1461.17 175 1461.17 175C1461.16 175 1461.15 175 1461.14 175C1461.14 175 1461.13 175 1461.12 175C1461.11 175 1461.11 175 1461.1 175C1461.09 175 1461.08 175 1461.08 175C1461.07 175 1461.06 175 1461.05 175C1461.05 175 1461.04 175 1461.03 175C1461.02 175 1461.02 175 1461.01 175C1461 175 1460.99 175 1460.99 175C1460.98 175 1460.97 175 1460.96 175C1460.96 175 1460.95 175 1460.94 175C1460.94 175 1460.93 175 1460.92 175C1460.91 175 1460.91 175 1460.9 175C1460.89 175 1460.88 175 1460.88 175C1460.87 175 1460.86 175 1460.85 175C1460.85 175 1460.84 175 1460.83 175C1460.82 175 1460.82 175 1460.81 175C1460.8 175 1460.79 175 1460.79 175C1460.78 175 1460.77 175 1460.77 175C1460.76 175 1460.75 175 1460.74 175C1460.74 175 1460.73 175 1460.72 175C1460.71 175 1460.71 175 1460.7 175C1460.69 175 1460.68 175 1460.68 175C1460.67 175 1460.66 175 1460.66 175C1460.65 175 1460.64 175 1460.63 175C1460.63 175 1460.62 175 1460.61 175C1460.6 175 1460.6 175 1460.59 175C1460.58 175 1460.57 175 1460.57 175C1460.56 175 1460.55 175 1460.55 175C1460.54 175 1460.53 175 1460.52 175C1460.52 175 1460.51 175 1460.5 175C1460.49 175 1460.49 175 1460.48 175C1460.47 175 1460.47 175 1460.46 175C1460.45 175 1460.44 175 1460.44 175C1460.43 175 1460.42 175 1460.41 175C1460.41 175 1460.4 175 1460.39 175C1460.39 175 1460.38 175 1460.37 175C1460.36 175 1460.36 175 1460.35 175C1460.34 175 1460.34 175 1460.33 175C1460.32 175 1460.31 175 1460.31 175C1460.3 175 1460.29 175 1460.28 175C1460.28 175 1460.27 175 1460.26 175C1460.26 175 1460.25 175 1460.24 175C1460.23 175 1460.23 175 1460.22 175C1460.21 175 1460.21 175 1460.2 175C1460.19 175 1460.18 175 1460.18 175C1460.17 175 1460.16 175 1460.16 175C1460.15 175 1460.14 175 1460.13 175C1460.13 175 1460.12 175 1460.11 175C1460.1 175 1460.1 175 1460.09 175C1460.08 175 1460.08 175 1460.07 175C1460.06 175 1460.05 175 1460.05 175C1460.04 175 1460.03 175 1460.03 175C1460.02 175 1460.01 175 1460.01 175C1460 175 1459.99 175 1459.98 175C1459.98 175 1459.97 175 1459.96 175C1459.96 175 1459.95 175 1459.94 175C1459.93 175 1459.93 175 1459.92 175C1459.91 175 1459.91 175 1459.9 175C1459.89 175 1459.88 175 1459.88 175C1459.87 175 1459.86 175 1459.86 175C1459.85 175 1459.84 175 1459.83 175C1459.83 175 1459.82 175 1459.81 175C1459.81 175 1459.8 175 1459.79 175C1459.79 175 1459.78 175 1459.77 175C1459.76 175 1459.76 175 1459.75 175C1459.74 175 1459.74 175 1459.73 175C1459.72 175 1459.71 175 1459.71 175C1459.7 175 1459.69 175 1459.69 175C1459.68 175 1459.67 175 1459.67 175C1459.66 175 1459.65 175 1459.64 175C1459.64 175 1459.63 175 1459.62 175C1459.62 175 1459.61 175 1459.6 175C1459.6 175 1459.59 175 1459.58 175C1459.57 175 1459.57 175 1459.56 175C1459.55 175 1459.55 175 1459.54 175C1459.53 175 1459.53 175 1459.52 175C1459.51 175 1459.5 175 1459.5 175C1459.49 175 1459.48 175 1459.48 175C1459.47 175 1459.46 175 1459.46 175C1459.45 175 1459.44 175 1459.44 175C1459.43 175 1459.42 175 1459.41 175C1459.41 175 1459.4 175 1459.39 175C1459.39 175 1459.38 175 1459.37 175C1459.37 175 1459.36 175 1459.35 175C1459.35 175 1459.34 175 1459.33 175C1459.32 175 1459.32 175 1459.31 175C1459.3 175 1459.3 175 1459.29 175C1459.28 175 1459.28 175 1459.27 175C1459.26 175 1459.26 175 1459.25 175C1459.24 175 1459.23 175 1459.23 175C1459.22 175 1459.21 175 1459.21 175C1459.2 175 1459.19 175 1459.19 175C1459.18 175 1459.17 175 1459.17 175C1459.16 175 1459.15 175 1459.15 175C1459.14 175 1459.13 175 1459.13 175C1459.12 175 1459.11 175 1459.1 175C1459.1 175 1459.09 175 1459.08 175C1459.08 175 1459.07 175 1459.06 175C1459.06 175 1459.05 175 1459.04 175C1459.04 175 1459.03 175 1459.02 175C1459.02 175 1459.01 175 1459 175C1459 175 1458.99 175 1458.98 175C1458.98 175 1458.97 175 1458.96 175C1458.95 175 1458.95 175 1458.94 175C1458.93 175 1458.93 175 1458.92 175C1458.91 175 1458.91 175 1458.9 175C1458.89 175 1458.89 175 1458.88 175C1458.87 175 1458.87 175 1458.86 175C1458.85 175 1458.85 175 1458.84 175C1458.83 175 1458.83 175 1458.82 175C1458.81 175 1458.81 175 1458.8 175C1458.79 175 1458.79 175 1458.78 175C1458.77 175 1458.77 175 1458.76 175C1458.75 175 1458.75 175 1458.74 175C1458.73 175 1458.73 175 1458.72 175C1458.71 175 1458.71 175 1458.7 175C1458.69 175 1458.69 175 1458.68 175C1458.67 175 1458.67 175 1458.66 175C1458.65 175 1458.65 175 1458.64 175C1458.63 175 1458.63 175 1458.62 175C1458.61 175 1458.61 175 1458.6 175C1458.59 175 1458.59 175 1458.58 175C1458.57 175 1458.57 175 1458.56 175C1458.55 175 1458.55 175 1458.54 175C1458.53 175 1458.53 175 1458.52 175C1458.51 175 1458.51 175 1458.5 175C1458.49 175 1458.49 175 1458.48 175C1458.47 175 1458.47 175 1458.46 175C1458.45 175 1458.45 175 1458.44 175C1458.43 175 1458.43 175 1458.42 175C1458.41 175 1458.41 175 1458.4 175C1458.39 175 1458.39 175 1458.38 175C1458.37 175 1458.37 175 1458.36 175C1458.35 175 1458.35 175 1458.34 175C1458.33 175 1458.33 175 1458.32 175C1458.31 175 1458.31 175 1458.3 175C1458.29 175 1458.29 175 1458.28 175C1458.27 175 1458.27 175 1458.26 175C1458.25 175 1458.25 175 1458.24 175C1458.24 175 1458.23 175 1458.22 175C1458.22 175 1458.21 175 1458.2 175C1458.2 175 1458.19 175 1458.18 175C1458.18 175 1458.17 175 1458.16 175C1458.16 175 1458.15 175 1458.14 175C1458.14 175 1458.13 175 1458.12 175C1458.12 175 1458.11 175 1458.1 175C1458.1 175 1458.09 175 1458.09 175C1458.08 175 1458.07 175 1458.07 175C1458.06 175 1458.05 175 1458.05 175C1458.04 175 1458.03 175 1458.03 175C1458.02 175 1458.01 175 1458.01 175C1458 175 1457.99 175 1457.99 175C1457.98 175 1457.98 175 1457.97 175C1457.96 175 1457.96 175 1457.95 175C1457.94 175 1457.94 175 1457.93 175C1457.92 175 1457.92 175 1457.91 175C1457.9 175 1457.9 175 1457.89 175C1457.89 175 1457.88 175 1457.87 175C1457.87 175 1457.86 175 1457.85 175C1457.85 175 1457.84 175 1457.83 175C1457.83 175 1457.82 175 1457.81 175C1457.81 175 1457.8 175 1457.8 175C1457.79 175 1457.78 175 1457.78 175C1457.77 175 1457.76 175 1457.76 175C1457.75 175 1457.74 175 1457.74 175C1457.73 175 1457.73 175 1457.72 175C1457.71 175 1457.71 175 1457.7 175C1457.69 175 1457.69 175 1457.68 175C1457.67 175 1457.67 175 1457.66 175C1457.66 175 1457.65 175 1457.64 175C1457.64 175 1457.63 175 1457.62 175C1457.62 175 1457.61 175 1457.6 175C1457.6 175 1457.59 175 1457.59 175C1457.58 175 1457.57 175 1457.57 175C1457.56 175 1457.55 175 1457.55 175C1457.54 175 1457.54 175 1457.53 175C1457.52 175 1457.52 175 1457.51 175C1457.5 175 1457.5 175 1457.49 175C1457.48 175 1457.48 175 1457.47 175C1457.47 175 1457.46 175 1457.45 175C1457.45 175 1457.44 175 1457.43 175C1457.43 175 1457.42 175 1457.42 175C1457.41 175 1457.4 175 1457.4 175C1457.39 175 1457.38 175 1457.38 175C1457.37 175 1457.37 175 1457.36 175C1457.35 175 1457.35 175 1457.34 175C1457.33 175 1457.33 175 1457.32 175C1457.32 175 1457.31 175 1457.3 175C1457.3 175 1457.29 175 1457.28 175C1457.28 175 1457.27 175 1457.27 175C1457.26 175 1457.25 175 1457.25 175C1457.24 175 1457.24 175 1457.23 175C1457.22 175 1457.22 175 1457.21 175C1457.2 175 1457.2 175 1457.19 175C1457.19 175 1457.18 175 1457.17 175C1457.17 175 1457.16 175 1457.16 175C1457.15 175 1457.14 175 1457.14 175C1457.13 175 1457.12 175 1457.12 175C1457.11 175 1457.11 175 1457.1 175C1457.09 175 1457.09 175 1457.08 175C1457.08 175 1457.07 175 1457.06 175C1457.06 175 1457.05 175 1457.04 175C1457.04 175 1457.03 175 1457.03 175C1457.02 175 1457.01 175 1457.01 175C1457 175 1457 175 1456.99 175C1456.98 175 1456.98 175 1456.97 175C1456.97 175 1456.96 175 1456.95 175C1456.95 175 1456.94 175 1456.93 175C1456.93 175 1456.92 175 1456.92 175C1456.91 175 1456.9 175 1456.9 175C1456.89 175 1456.89 175 1456.88 175C1456.87 175 1456.87 175 1456.86 175C1456.86 175 1456.85 175 1456.84 175C1456.84 175 1456.83 175 1456.83 175C1456.82 175 1456.81 175 1456.81 175C1456.8 175 1456.8 175 1456.79 175C1456.78 175 1456.78 175 1456.77 175C1456.77 175 1456.76 175 1456.75 175C1456.75 175 1456.74 175 1456.74 175C1456.73 175 1456.72 175 1456.72 175C1456.71 175 1456.71 175 1456.7 175C1456.69 175 1456.69 175 1456.68 175C1456.68 175 1456.67 175 1456.66 175C1456.66 175 1456.65 175 1456.65 175C1456.64 175 1456.63 175 1456.63 175C1456.62 175 1456.62 175 1456.61 175C1456.6 175 1456.6 175 1456.59 175C1456.59 175 1456.58 175 1456.57 175C1456.57 175 1456.56 175 1456.56 175C1456.55 175 1456.54 175 1456.54 175C1456.53 175 1456.53 175 1456.52 175C1456.51 175 1456.51 175 1456.5 175C1456.5 175 1456.49 175 1456.48 175C1456.48 175 1456.47 175 1456.47 175C1456.46 175 1456.46 175 1456.45 175C1456.44 175 1456.44 175 1456.43 175C1456.43 175 1456.42 175 1456.41 175C1456.41 175 1456.4 175 1456.4 175C1456.39 175 1456.38 175 1456.38 175C1456.37 175 1456.37 175 1456.36 175C1456.36 175 1456.35 175 1456.34 175C1456.34 175 1456.33 175 1456.33 175C1456.32 175 1456.31 175 1456.31 175C1456.3 175 1456.3 175 1456.29 175C1456.28 175 1456.28 175 1456.27 175C1456.27 175 1456.26 175 1456.26 175C1456.25 175 1456.24 175 1456.24 175C1456.23 175 1456.23 175 1456.22 175C1456.21 175 1456.21 175 1456.2 175C1456.2 175 1456.19 175 1456.19 175C1456.18 175 1456.17 175 1456.17 175C1456.16 175 1456.16 175 1456.15 175C1456.15 175 1456.14 175 1456.13 175C1456.13 175 1456.12 175 1456.12 175C1456.11 175 1456.1 175 1456.1 175C1456.09 175 1456.09 175 1456.08 175C1456.08 175 1456.07 175 1456.06 175C1456.06 175 1456.05 175 1456.05 175C1456.04 175 1456.04 175 1456.03 175C1456.02 175 1456.02 175 1456.01 175C1456.01 175 1456 175 1456 175C1455.99 175 1455.98 175 1455.98 175C1455.97 175 1455.97 175 1455.96 175C1455.96 175 1455.95 175 1455.94 175C1455.94 175 1455.93 175 1455.93 175C1455.92 175 1455.92 175 1455.91 175C1455.9 175 1455.9 175 1455.89 175C1455.89 175 1455.88 175 1455.88 175C1455.87 175 1455.86 175 1455.86 175C1455.85 175 1455.85 175 1455.84 175C1455.84 175 1455.83 175 1455.82 175C1455.82 175 1455.81 175 1455.81 175C1455.8 175 1455.8 175 1455.79 175C1455.79 175 1455.78 175 1455.77 175C1455.77 175 1455.76 175 1455.76 175C1455.75 175 1455.75 175 1455.74 175C1455.73 175 1455.73 175 1455.72 175C1455.72 175 1455.71 175 1455.71 175C1455.7 175 1455.7 175 1455.69 175C1455.68 175 1455.68 175 1455.67 175C1455.67 175 1455.66 175 1455.66 175C1455.65 175 1455.65 175 1455.64 175C1455.63 175 1455.63 175 1455.62 175C1455.62 175 1455.61 175 1455.61 175C1455.6 175 1455.59 175 1455.59 175C1455.58 175 1455.58 175 1455.57 175C1455.57 175 1455.56 175 1455.56 175C1455.55 175 1455.54 175 1455.54 175C1455.53 175 1455.53 175 1455.52 175C1455.52 175 1455.51 175 1455.51 175C1455.5 175 1455.49 175 1455.49 175C1455.48 175 1455.48 175 1455.47 175C1455.47 175 1455.46 175 1455.46 175C1455.45 175 1455.45 175 1455.44 175C1455.43 175 1455.43 175 1455.42 175C1455.42 175 1455.41 175 1455.41 175C1455.4 175 1455.4 175 1455.39 175C1455.38 175 1455.38 175 1455.37 175C1455.37 175 1455.36 175 1455.36 175C1455.35 175 1455.35 175 1455.34 175C1455.34 175 1455.33 175 1455.32 175C1455.32 175 1455.31 175 1455.31 175C1455.3 175 1455.3 175 1455.29 175C1455.29 175 1455.28 175 1455.28 175C1455.27 175 1455.26 175 1455.26 175C1455.25 175 1455.25 175 1455.24 175C1455.24 175 1455.23 175 1455.23 175C1455.22 175 1455.22 175 1455.21 175C1455.21 175 1455.2 175 1455.19 175C1455.19 175 1455.18 175 1455.18 175C1455.17 175 1455.17 175 1455.16 175C1455.16 175 1455.15 175 1455.15 175C1455.14 175 1455.13 175 1455.13 175C1455.12 175 1455.12 175 1455.11 175C1455.11 175 1455.1 175 1455.1 175C1455.09 175 1455.09 175 1455.08 175C1455.08 175 1455.07 175 1455.07 175C1455.06 175 1455.05 175 1455.05 175C1455.04 175 1455.04 175 1455.03 175C1455.03 175 1455.02 175 1455.02 175C1455.01 175 1455.01 175 1455 175C1455 175 1454.99 175 1454.99 175C1454.98 175 1454.97 175 1454.97 175C1454.96 175 1454.96 175 1454.95 175C1454.95 175 1454.94 175 1454.94 175C1454.93 175 1454.93 175 1454.92 175C1454.92 175 1454.91 175 1454.91 175C1454.9 175 1454.9 175 1454.89 175C1454.88 175 1454.88 175 1454.87 175C1454.87 175 1454.86 175 1454.86 175C1454.85 175 1454.85 175 1454.84 175C1454.84 175 1454.83 175 1454.83 175C1454.82 175 1454.82 175 1454.81 175C1454.81 175 1454.8 175 1454.8 175C1454.79 175 1454.78 175 1454.78 175C1454.77 175 1454.77 175 1454.76 175C1454.76 175 1454.75 175 1454.75 175C1454.74 175 1454.74 175 1454.73 175C1454.73 175 1454.72 175 1454.72 175C1454.71 175 1454.71 175 1454.7 175C1454.7 175 1454.69 175 1454.69 175C1454.68 175 1454.68 175 1454.67 175C1454.67 175 1454.66 175 1454.65 175C1454.65 175 1454.64 175 1454.64 175C1454.63 175 1454.63 175 1454.62 175C1454.62 175 1454.61 175 1454.61 175V177C1454.61 177 1454.62 177 1454.62 177C1454.63 177 1454.63 177 1454.64 177C1454.64 177 1454.65 177 1454.65 177C1454.66 177 1454.67 177 1454.67 177C1454.68 177 1454.68 177 1454.69 177C1454.69 177 1454.7 177 1454.7 177C1454.71 177 1454.71 177 1454.72 177C1454.72 177 1454.73 177 1454.73 177C1454.74 177 1454.74 177 1454.75 177C1454.75 177 1454.76 177 1454.76 177C1454.77 177 1454.77 177 1454.78 177C1454.78 177 1454.79 177 1454.8 177C1454.8 177 1454.81 177 1454.81 177C1454.82 177 1454.82 177 1454.83 177C1454.83 177 1454.84 177 1454.84 177C1454.85 177 1454.85 177 1454.86 177C1454.86 177 1454.87 177 1454.87 177C1454.88 177 1454.88 177 1454.89 177C1454.9 177 1454.9 177 1454.91 177C1454.91 177 1454.92 177 1454.92 177C1454.93 177 1454.93 177 1454.94 177C1454.94 177 1454.95 177 1454.95 177C1454.96 177 1454.96 177 1454.97 177C1454.97 177 1454.98 177 1454.99 177C1454.99 177 1455 177 1455 177C1455.01 177 1455.01 177 1455.02 177C1455.02 177 1455.03 177 1455.03 177C1455.04 177 1455.04 177 1455.05 177C1455.05 177 1455.06 177 1455.07 177C1455.07 177 1455.08 177 1455.08 177C1455.09 177 1455.09 177 1455.1 177C1455.1 177 1455.11 177 1455.11 177C1455.12 177 1455.12 177 1455.13 177C1455.13 177 1455.14 177 1455.15 177C1455.15 177 1455.16 177 1455.16 177C1455.17 177 1455.17 177 1455.18 177C1455.18 177 1455.19 177 1455.19 177C1455.2 177 1455.21 177 1455.21 177C1455.22 177 1455.22 177 1455.23 177C1455.23 177 1455.24 177 1455.24 177C1455.25 177 1455.25 177 1455.26 177C1455.26 177 1455.27 177 1455.28 177C1455.28 177 1455.29 177 1455.29 177C1455.3 177 1455.3 177 1455.31 177C1455.31 177 1455.32 177 1455.32 177C1455.33 177 1455.34 177 1455.34 177C1455.35 177 1455.35 177 1455.36 177C1455.36 177 1455.37 177 1455.37 177C1455.38 177 1455.38 177 1455.39 177C1455.4 177 1455.4 177 1455.41 177C1455.41 177 1455.42 177 1455.42 177C1455.43 177 1455.43 177 1455.44 177C1455.45 177 1455.45 177 1455.46 177C1455.46 177 1455.47 177 1455.47 177C1455.48 177 1455.48 177 1455.49 177C1455.49 177 1455.5 177 1455.51 177C1455.51 177 1455.52 177 1455.52 177C1455.53 177 1455.53 177 1455.54 177C1455.54 177 1455.55 177 1455.56 177C1455.56 177 1455.57 177 1455.57 177C1455.58 177 1455.58 177 1455.59 177C1455.59 177 1455.6 177 1455.61 177C1455.61 177 1455.62 177 1455.62 177C1455.63 177 1455.63 177 1455.64 177C1455.65 177 1455.65 177 1455.66 177C1455.66 177 1455.67 177 1455.67 177C1455.68 177 1455.68 177 1455.69 177C1455.7 177 1455.7 177 1455.71 177C1455.71 177 1455.72 177 1455.72 177C1455.73 177 1455.73 177 1455.74 177C1455.75 177 1455.75 177 1455.76 177C1455.76 177 1455.77 177 1455.77 177C1455.78 177 1455.79 177 1455.79 177C1455.8 177 1455.8 177 1455.81 177C1455.81 177 1455.82 177 1455.82 177C1455.83 177 1455.84 177 1455.84 177C1455.85 177 1455.85 177 1455.86 177C1455.86 177 1455.87 177 1455.88 177C1455.88 177 1455.89 177 1455.89 177C1455.9 177 1455.9 177 1455.91 177C1455.92 177 1455.92 177 1455.93 177C1455.93 177 1455.94 177 1455.94 177C1455.95 177 1455.96 177 1455.96 177C1455.97 177 1455.97 177 1455.98 177C1455.98 177 1455.99 177 1456 177C1456 177 1456.01 177 1456.01 177C1456.02 177 1456.02 177 1456.03 177C1456.04 177 1456.04 177 1456.05 177C1456.05 177 1456.06 177 1456.06 177C1456.07 177 1456.08 177 1456.08 177C1456.09 177 1456.09 177 1456.1 177C1456.1 177 1456.11 177 1456.12 177C1456.12 177 1456.13 177 1456.13 177C1456.14 177 1456.15 177 1456.15 177C1456.16 177 1456.16 177 1456.17 177C1456.17 177 1456.18 177 1456.19 177C1456.19 177 1456.2 177 1456.2 177C1456.21 177 1456.21 177 1456.22 177C1456.23 177 1456.23 177 1456.24 177C1456.24 177 1456.25 177 1456.26 177C1456.26 177 1456.27 177 1456.27 177C1456.28 177 1456.28 177 1456.29 177C1456.3 177 1456.3 177 1456.31 177C1456.31 177 1456.32 177 1456.33 177C1456.33 177 1456.34 177 1456.34 177C1456.35 177 1456.36 177 1456.36 177C1456.37 177 1456.37 177 1456.38 177C1456.38 177 1456.39 177 1456.4 177C1456.4 177 1456.41 177 1456.41 177C1456.42 177 1456.43 177 1456.43 177C1456.44 177 1456.44 177 1456.45 177C1456.46 177 1456.46 177 1456.47 177C1456.47 177 1456.48 177 1456.48 177C1456.49 177 1456.5 177 1456.5 177C1456.51 177 1456.51 177 1456.52 177C1456.53 177 1456.53 177 1456.54 177C1456.54 177 1456.55 177 1456.56 177C1456.56 177 1456.57 177 1456.57 177C1456.58 177 1456.59 177 1456.59 177C1456.6 177 1456.6 177 1456.61 177C1456.62 177 1456.62 177 1456.63 177C1456.63 177 1456.64 177 1456.65 177C1456.65 177 1456.66 177 1456.66 177C1456.67 177 1456.68 177 1456.68 177C1456.69 177 1456.69 177 1456.7 177C1456.71 177 1456.71 177 1456.72 177C1456.72 177 1456.73 177 1456.74 177C1456.74 177 1456.75 177 1456.75 177C1456.76 177 1456.77 177 1456.77 177C1456.78 177 1456.78 177 1456.79 177C1456.8 177 1456.8 177 1456.81 177C1456.81 177 1456.82 177 1456.83 177C1456.83 177 1456.84 177 1456.84 177C1456.85 177 1456.86 177 1456.86 177C1456.87 177 1456.87 177 1456.88 177C1456.89 177 1456.89 177 1456.9 177C1456.9 177 1456.91 177 1456.92 177C1456.92 177 1456.93 177 1456.93 177C1456.94 177 1456.95 177 1456.95 177C1456.96 177 1456.97 177 1456.97 177C1456.98 177 1456.98 177 1456.99 177C1457 177 1457 177 1457.01 177C1457.01 177 1457.02 177 1457.03 177C1457.03 177 1457.04 177 1457.04 177C1457.05 177 1457.06 177 1457.06 177C1457.07 177 1457.08 177 1457.08 177C1457.09 177 1457.09 177 1457.1 177C1457.11 177 1457.11 177 1457.12 177C1457.12 177 1457.13 177 1457.14 177C1457.14 177 1457.15 177 1457.16 177C1457.16 177 1457.17 177 1457.17 177C1457.18 177 1457.19 177 1457.19 177C1457.2 177 1457.2 177 1457.21 177C1457.22 177 1457.22 177 1457.23 177C1457.24 177 1457.24 177 1457.25 177C1457.25 177 1457.26 177 1457.27 177C1457.27 177 1457.28 177 1457.28 177C1457.29 177 1457.3 177 1457.3 177C1457.31 177 1457.32 177 1457.32 177C1457.33 177 1457.33 177 1457.34 177C1457.35 177 1457.35 177 1457.36 177C1457.37 177 1457.37 177 1457.38 177C1457.38 177 1457.39 177 1457.4 177C1457.4 177 1457.41 177 1457.42 177C1457.42 177 1457.43 177 1457.43 177C1457.44 177 1457.45 177 1457.45 177C1457.46 177 1457.47 177 1457.47 177C1457.48 177 1457.48 177 1457.49 177C1457.5 177 1457.5 177 1457.51 177C1457.52 177 1457.52 177 1457.53 177C1457.54 177 1457.54 177 1457.55 177C1457.55 177 1457.56 177 1457.57 177C1457.57 177 1457.58 177 1457.59 177C1457.59 177 1457.6 177 1457.6 177C1457.61 177 1457.62 177 1457.62 177C1457.63 177 1457.64 177 1457.64 177C1457.65 177 1457.66 177 1457.66 177C1457.67 177 1457.67 177 1457.68 177C1457.69 177 1457.69 177 1457.7 177C1457.71 177 1457.71 177 1457.72 177C1457.73 177 1457.73 177 1457.74 177C1457.74 177 1457.75 177 1457.76 177C1457.76 177 1457.77 177 1457.78 177C1457.78 177 1457.79 177 1457.8 177C1457.8 177 1457.81 177 1457.81 177C1457.82 177 1457.83 177 1457.83 177C1457.84 177 1457.85 177 1457.85 177C1457.86 177 1457.87 177 1457.87 177C1457.88 177 1457.89 177 1457.89 177C1457.9 177 1457.9 177 1457.91 177C1457.92 177 1457.92 177 1457.93 177C1457.94 177 1457.94 177 1457.95 177C1457.96 177 1457.96 177 1457.97 177C1457.98 177 1457.98 177 1457.99 177C1457.99 177 1458 177 1458.01 177C1458.01 177 1458.02 177 1458.03 177C1458.03 177 1458.04 177 1458.05 177C1458.05 177 1458.06 177 1458.07 177C1458.07 177 1458.08 177 1458.09 177C1458.09 177 1458.1 177 1458.1 177C1458.11 177 1458.12 177 1458.12 177C1458.13 177 1458.14 177 1458.14 177C1458.15 177 1458.16 177 1458.16 177C1458.17 177 1458.18 177 1458.18 177C1458.19 177 1458.2 177 1458.2 177C1458.21 177 1458.22 177 1458.22 177C1458.23 177 1458.24 177 1458.24 177C1458.25 177 1458.25 177 1458.26 177C1458.27 177 1458.27 177 1458.28 177C1458.29 177 1458.29 177 1458.3 177C1458.31 177 1458.31 177 1458.32 177C1458.33 177 1458.33 177 1458.34 177C1458.35 177 1458.35 177 1458.36 177C1458.37 177 1458.37 177 1458.38 177C1458.39 177 1458.39 177 1458.4 177C1458.41 177 1458.41 177 1458.42 177C1458.43 177 1458.43 177 1458.44 177C1458.45 177 1458.45 177 1458.46 177C1458.47 177 1458.47 177 1458.48 177C1458.49 177 1458.49 177 1458.5 177C1458.51 177 1458.51 177 1458.52 177C1458.53 177 1458.53 177 1458.54 177C1458.55 177 1458.55 177 1458.56 177C1458.57 177 1458.57 177 1458.58 177C1458.59 177 1458.59 177 1458.6 177C1458.61 177 1458.61 177 1458.62 177C1458.63 177 1458.63 177 1458.64 177C1458.65 177 1458.65 177 1458.66 177C1458.67 177 1458.67 177 1458.68 177C1458.69 177 1458.69 177 1458.7 177C1458.71 177 1458.71 177 1458.72 177C1458.73 177 1458.73 177 1458.74 177C1458.75 177 1458.75 177 1458.76 177C1458.77 177 1458.77 177 1458.78 177C1458.79 177 1458.79 177 1458.8 177C1458.81 177 1458.81 177 1458.82 177C1458.83 177 1458.83 177 1458.84 177C1458.85 177 1458.85 177 1458.86 177C1458.87 177 1458.87 177 1458.88 177C1458.89 177 1458.89 177 1458.9 177C1458.91 177 1458.91 177 1458.92 177C1458.93 177 1458.93 177 1458.94 177C1458.95 177 1458.95 177 1458.96 177C1458.97 177 1458.98 177 1458.98 177C1458.99 177 1459 177 1459 177C1459.01 177 1459.02 177 1459.02 177C1459.03 177 1459.04 177 1459.04 177C1459.05 177 1459.06 177 1459.06 177C1459.07 177 1459.08 177 1459.08 177C1459.09 177 1459.1 177 1459.1 177C1459.11 177 1459.12 177 1459.13 177C1459.13 177 1459.14 177 1459.15 177C1459.15 177 1459.16 177 1459.17 177C1459.17 177 1459.18 177 1459.19 177C1459.19 177 1459.2 177 1459.21 177C1459.21 177 1459.22 177 1459.23 177C1459.23 177 1459.24 177 1459.25 177C1459.26 177 1459.26 177 1459.27 177C1459.28 177 1459.28 177 1459.29 177C1459.3 177 1459.3 177 1459.31 177C1459.32 177 1459.32 177 1459.33 177C1459.34 177 1459.35 177 1459.35 177C1459.36 177 1459.37 177 1459.37 177C1459.38 177 1459.39 177 1459.39 177C1459.4 177 1459.41 177 1459.41 177C1459.42 177 1459.43 177 1459.44 177C1459.44 177 1459.45 177 1459.46 177C1459.46 177 1459.47 177 1459.48 177C1459.48 177 1459.49 177 1459.5 177C1459.5 177 1459.51 177 1459.52 177C1459.53 177 1459.53 177 1459.54 177C1459.55 177 1459.55 177 1459.56 177C1459.57 177 1459.57 177 1459.58 177C1459.59 177 1459.6 177 1459.6 177C1459.61 177 1459.62 177 1459.62 177C1459.63 177 1459.64 177 1459.64 177C1459.65 177 1459.66 177 1459.67 177C1459.67 177 1459.68 177 1459.69 177C1459.69 177 1459.7 177 1459.71 177C1459.71 177 1459.72 177 1459.73 177C1459.74 177 1459.74 177 1459.75 177C1459.76 177 1459.76 177 1459.77 177C1459.78 177 1459.79 177 1459.79 177C1459.8 177 1459.81 177 1459.81 177C1459.82 177 1459.83 177 1459.83 177C1459.84 177 1459.85 177 1459.86 177C1459.86 177 1459.87 177 1459.88 177C1459.88 177 1459.89 177 1459.9 177C1459.91 177 1459.91 177 1459.92 177C1459.93 177 1459.93 177 1459.94 177C1459.95 177 1459.96 177 1459.96 177C1459.97 177 1459.98 177 1459.98 177C1459.99 177 1460 177 1460.01 177C1460.01 177 1460.02 177 1460.03 177C1460.03 177 1460.04 177 1460.05 177C1460.05 177 1460.06 177 1460.07 177C1460.08 177 1460.08 177 1460.09 177C1460.1 177 1460.1 177 1460.11 177C1460.12 177 1460.13 177 1460.13 177C1460.14 177 1460.15 177 1460.16 177C1460.16 177 1460.17 177 1460.18 177C1460.18 177 1460.19 177 1460.2 177C1460.21 177 1460.21 177 1460.22 177C1460.23 177 1460.23 177 1460.24 177C1460.25 177 1460.26 177 1460.26 177C1460.27 177 1460.28 177 1460.28 177C1460.29 177 1460.3 177 1460.31 177C1460.31 177 1460.32 177 1460.33 177C1460.34 177 1460.34 177 1460.35 177C1460.36 177 1460.36 177 1460.37 177C1460.38 177 1460.39 177 1460.39 177C1460.4 177 1460.41 177 1460.41 177C1460.42 177 1460.43 177 1460.44 177C1460.44 177 1460.45 177 1460.46 177C1460.47 177 1460.47 177 1460.48 177C1460.49 177 1460.49 177 1460.5 177C1460.51 177 1460.52 177 1460.52 177C1460.53 177 1460.54 177 1460.55 177C1460.55 177 1460.56 177 1460.57 177C1460.57 177 1460.58 177 1460.59 177C1460.6 177 1460.6 177 1460.61 177C1460.62 177 1460.63 177 1460.63 177C1460.64 177 1460.65 177 1460.66 177C1460.66 177 1460.67 177 1460.68 177C1460.68 177 1460.69 177 1460.7 177C1460.71 177 1460.71 177 1460.72 177C1460.73 177 1460.74 177 1460.74 177C1460.75 177 1460.76 177 1460.77 177C1460.77 177 1460.78 177 1460.79 177C1460.79 177 1460.8 177 1460.81 177C1460.82 177 1460.82 177 1460.83 177C1460.84 177 1460.85 177 1460.85 177C1460.86 177 1460.87 177 1460.88 177C1460.88 177 1460.89 177 1460.9 177C1460.91 177 1460.91 177 1460.92 177C1460.93 177 1460.94 177 1460.94 177C1460.95 177 1460.96 177 1460.96 177C1460.97 177 1460.98 177 1460.99 177C1460.99 177 1461 177 1461.01 177C1461.02 177 1461.02 177 1461.03 177C1461.04 177 1461.05 177 1461.05 177C1461.06 177 1461.07 177 1461.08 177C1461.08 177 1461.09 177 1461.1 177C1461.11 177 1461.11 177 1461.12 177C1461.13 177 1461.14 177 1461.14 177C1461.15 177 1461.16 177 1461.17 177C1461.17 177 1461.18 177 1461.19 177C1461.2 177 1461.2 177 1461.21 177C1461.22 177 1461.23 177 1461.23 177C1461.24 177 1461.25 177 1461.26 177C1461.26 177 1461.27 177 1461.28 177C1461.29 177 1461.29 177 1461.3 177C1461.31 177 1461.32 177 1461.32 177C1461.33 177 1461.34 177 1461.35 177C1461.35 177 1461.36 177 1461.37 177C1461.38 177 1461.38 177 1461.39 177C1461.4 177 1461.41 177 1461.41 177C1461.42 177 1461.43 177 1461.44 177C1461.44 177 1461.45 177 1461.46 177C1461.47 177 1461.47 177 1461.48 177C1461.49 177 1461.5 177 1461.5 177C1461.51 177 1461.52 177 1461.53 177C1461.54 177 1461.54 177 1461.55 177C1461.56 177 1461.57 177 1461.57 177C1461.58 177 1461.59 177 1461.6 177C1461.6 177 1461.61 177 1461.62 177C1461.63 177 1461.63 177 1461.64 177C1461.65 177 1461.66 177 1461.66 177C1461.67 177 1461.68 177 1461.69 177C1461.69 177 1461.7 177 1461.71 177C1461.72 177 1461.73 177 1461.73 177C1461.74 177 1461.75 177 1461.76 177C1461.76 177 1461.77 177 1461.78 177C1461.79 177 1461.79 177 1461.8 177C1461.81 177 1461.82 177 1461.83 177C1461.83 177 1461.84 177 1461.85 177C1461.86 177 1461.86 177 1461.87 177C1461.88 177 1461.89 177 1461.89 177C1461.9 177 1461.91 177 1461.92 177C1461.93 177 1461.93 177 1461.94 177C1461.95 177 1461.96 177 1461.96 177C1461.97 177 1461.98 177 1461.99 177C1461.99 177 1462 177 1462.01 177C1462.02 177 1462.03 177 1462.03 177C1462.04 177 1462.05 177 1462.06 177C1462.06 177 1462.07 177 1462.08 177C1462.09 177 1462.1 177 1462.1 177C1462.11 177 1462.12 177 1462.13 177C1462.13 177 1462.14 177 1462.15 177C1462.16 177 1462.16 177 1462.17 177C1462.18 177 1462.19 177 1462.2 177C1462.2 177 1462.21 177 1462.22 177C1462.23 177 1462.23 177 1462.24 177C1462.25 177 1462.26 177 1462.27 177C1462.27 177 1462.28 177 1462.29 177C1462.3 177 1462.31 177 1462.31 177C1462.32 177 1462.33 177 1462.34 177C1462.34 177 1462.35 177 1462.36 177C1462.37 177 1462.38 177 1462.38 177C1462.39 177 1462.4 177 1462.41 177C1462.41 177 1462.42 177 1462.43 177C1462.44 177 1462.45 177 1462.45 177C1462.46 177 1462.47 177 1462.48 177C1462.49 177 1462.49 177 1462.5 177C1462.51 177 1462.52 177 1462.52 177C1462.53 177 1462.54 177 1462.55 177C1462.56 177 1462.56 177 1462.57 177C1462.58 177 1462.59 177 1462.6 177C1462.6 177 1462.61 177 1462.62 177C1462.63 177 1462.64 177 1462.64 177C1462.65 177 1462.66 177 1462.67 177C1462.67 177 1462.68 177 1462.69 177C1462.7 177 1462.71 177 1462.71 177C1462.72 177 1462.73 177 1462.74 177C1462.75 177 1462.75 177 1462.76 177C1462.77 177 1462.78 177 1462.79 177C1462.79 177 1462.8 177 1462.81 177C1462.82 177 1462.83 177 1462.83 177C1462.84 177 1462.85 177 1462.86 177C1462.87 177 1462.87 177 1462.88 177C1462.89 177 1462.9 177 1462.91 177C1462.91 177 1462.92 177 1462.93 177C1462.94 177 1462.95 177 1462.95 177C1462.96 177 1462.97 177 1462.98 177C1462.99 177 1462.99 177 1463 177C1463.01 177 1463.02 177 1463.03 177C1463.03 177 1463.04 177 1463.05 177C1463.06 177 1463.07 177 1463.07 177C1463.08 177 1463.09 177 1463.1 177C1463.11 177 1463.11 177 1463.12 177C1463.13 177 1463.14 177 1463.15 177C1463.15 177 1463.16 177 1463.17 177C1463.18 177 1463.19 177 1463.19 177C1463.2 177 1463.21 177 1463.22 177C1463.23 177 1463.23 177 1463.24 177C1463.25 177 1463.26 177 1463.27 177C1463.28 177 1463.28 177 1463.29 177C1463.3 177 1463.31 177 1463.32 177C1463.32 177 1463.33 177 1463.34 177C1463.35 177 1463.36 177 1463.36 177C1463.37 177 1463.38 177 1463.39 177C1463.4 177 1463.4 177 1463.41 177C1463.42 177 1463.43 177 1463.44 177C1463.45 177 1463.45 177 1463.46 177C1463.47 177 1463.48 177 1463.49 177C1463.49 177 1463.5 177 1463.51 177C1463.52 177 1463.53 177 1463.53 177C1463.54 177 1463.55 177 1463.56 177C1463.57 177 1463.58 177 1463.58 177C1463.59 177 1463.6 177 1463.61 177C1463.62 177 1463.62 177 1463.63 177C1463.64 177 1463.65 177 1463.66 177C1463.67 177 1463.67 177 1463.68 177C1463.69 177 1463.7 177 1463.71 177C1463.71 177 1463.72 177 1463.73 177C1463.74 177 1463.75 177 1463.76 177C1463.76 177 1463.77 177 1463.78 177C1463.79 177 1463.8 177 1463.81 177C1463.81 177 1463.82 177 1463.83 177C1463.84 177 1463.85 177 1463.85 177C1463.86 177 1463.87 177 1463.88 177C1463.89 177 1463.9 177 1463.9 177C1463.91 177 1463.92 177 1463.93 177C1463.94 177 1463.95 177 1463.95 177C1463.96 177 1463.97 177 1463.98 177C1463.99 177 1464 177 1464 177C1464.01 177 1464.02 177 1464.03 177C1464.04 177 1464.04 177 1464.05 177C1464.06 177 1464.07 177 1464.08 177C1464.09 177 1464.09 177 1464.1 177C1464.11 177 1464.12 177 1464.13 177C1464.14 177 1464.14 177 1464.15 177C1464.16 177 1464.17 177 1464.18 177C1464.19 177 1464.19 177 1464.2 177C1464.21 177 1464.22 177 1464.23 177C1464.24 177 1464.24 177 1464.25 177C1464.26 177 1464.27 177 1464.28 177C1464.29 177 1464.29 177 1464.3 177C1464.31 177 1464.32 177 1464.33 177C1464.34 177 1464.35 177 1464.35 177C1464.36 177 1464.37 177 1464.38 177C1464.39 177 1464.4 177 1464.4 177C1464.41 177 1464.42 177 1464.43 177C1464.44 177 1464.45 177 1464.45 177C1464.46 177 1464.47 177 1464.48 177C1464.49 177 1464.5 177 1464.5 177C1464.51 177 1464.52 177 1464.53 177C1464.54 177 1464.55 177 1464.56 177C1464.56 177 1464.57 177 1464.58 177C1464.59 177 1464.6 177 1464.61 177C1464.61 177 1464.62 177 1464.63 177C1464.64 177 1464.65 177 1464.66 177C1464.67 177 1464.67 177 1464.68 177C1464.69 177 1464.7 177 1464.71 177C1464.72 177 1464.72 177 1464.73 177C1464.74 177 1464.75 177 1464.76 177C1464.77 177 1464.78 177 1464.78 177C1464.79 177 1464.8 177 1464.81 177C1464.82 177 1464.83 177 1464.83 177C1464.84 177 1464.85 177 1464.86 177C1464.87 177 1464.88 177 1464.89 177C1464.89 177 1464.9 177 1464.91 177C1464.92 177 1464.93 177 1464.94 177C1464.95 177 1464.95 177 1464.96 177C1464.97 177 1464.98 177 1464.99 177C1465 177 1465.01 177 1465.01 177C1465.02 177 1465.03 177 1465.04 177C1465.05 177 1465.06 177 1465.07 177C1465.07 177 1465.08 177 1465.09 177C1465.1 177 1465.11 177 1465.12 177C1465.13 177 1465.13 177 1465.14 177C1465.15 177 1465.16 177 1465.17 177V175ZM1454.61 175C1454.6 175 1454.6 175 1454.59 175C1454.59 175 1454.58 175 1454.58 175C1454.57 175 1454.57 175 1454.56 175C1454.56 175 1454.55 175 1454.55 175C1454.54 175 1454.54 175 1454.53 175C1454.53 175 1454.52 175 1454.52 175C1454.51 175 1454.51 175 1454.5 175C1454.5 175 1454.49 175 1454.48 175C1454.48 175 1454.47 175 1454.47 175C1454.46 175 1454.46 175 1454.45 175C1454.45 175 1454.44 175 1454.44 175C1454.43 175 1454.43 175 1454.42 175C1454.42 175 1454.41 175 1454.41 175C1454.4 175 1454.4 175 1454.39 175C1454.39 175 1454.38 175 1454.38 175C1454.37 175 1454.37 175 1454.36 175C1454.36 175 1454.35 175 1454.35 175C1454.34 175 1454.34 175 1454.33 175C1454.33 175 1454.32 175 1454.32 175C1454.31 175 1454.31 175 1454.3 175C1454.3 175 1454.29 175 1454.29 175C1454.28 175 1454.28 175 1454.27 175C1454.27 175 1454.26 175 1454.26 175C1454.25 175 1454.25 175 1454.24 175C1454.24 175 1454.23 175 1454.23 175C1454.22 175 1454.22 175 1454.21 175C1454.21 175 1454.2 175 1454.2 175C1454.19 175 1454.19 175 1454.18 175C1454.18 175 1454.17 175 1454.17 175C1454.16 175 1454.16 175 1454.15 175C1454.15 175 1454.14 175 1454.14 175C1454.13 175 1454.13 175 1454.12 175C1454.12 175 1454.11 175 1454.11 175C1454.1 175 1454.1 175 1454.09 175C1454.09 175 1454.08 175 1454.08 175C1454.07 175 1454.07 175 1454.06 175C1454.06 175 1454.05 175 1454.05 175C1454.04 175 1454.04 175 1454.03 175C1454.03 175 1454.03 175 1454.02 175C1454.02 175 1454.01 175 1454.01 175C1454 175 1454 175 1453.99 175C1453.99 175 1453.98 175 1453.98 175C1453.97 175 1453.97 175 1453.96 175C1453.96 175 1453.95 175 1453.95 175C1453.94 175 1453.94 175 1453.93 175C1453.93 175 1453.92 175 1453.92 175C1453.91 175 1453.91 175 1453.9 175C1453.9 175 1453.89 175 1453.89 175C1453.88 175 1453.88 175 1453.87 175C1453.87 175 1453.86 175 1453.86 175C1453.86 175 1453.85 175 1453.85 175C1453.84 175 1453.84 175 1453.83 175C1453.83 175 1453.82 175 1453.82 175C1453.81 175 1453.81 175 1453.8 175C1453.8 175 1453.79 175 1453.79 175C1453.78 175 1453.78 175 1453.77 175C1453.77 175 1453.76 175 1453.76 175C1453.75 175 1453.75 175 1453.74 175C1453.74 175 1453.74 175 1453.73 175C1453.73 175 1453.72 175 1453.72 175C1453.71 175 1453.71 175 1453.7 175C1453.7 175 1453.69 175 1453.69 175C1453.68 175 1453.68 175 1453.67 175C1453.67 175 1453.66 175 1453.66 175C1453.65 175 1453.65 175 1453.65 175C1453.64 175 1453.64 175 1453.63 175C1453.63 175 1453.62 175 1453.62 175C1453.61 175 1453.61 175 1453.6 175C1453.6 175 1453.59 175 1453.59 175C1453.58 175 1453.58 175 1453.57 175C1453.57 175 1453.57 175 1453.56 175C1453.56 175 1453.55 175 1453.55 175C1453.54 175 1453.54 175 1453.53 175C1453.53 175 1453.52 175 1453.52 175C1453.51 175 1453.51 175 1453.5 175C1453.5 175 1453.5 175 1453.49 175C1453.49 175 1453.48 175 1453.48 175C1453.47 175 1453.47 175 1453.46 175C1453.46 175 1453.45 175 1453.45 175C1453.44 175 1453.44 175 1453.44 175C1453.43 175 1453.43 175 1453.42 175C1453.42 175 1453.41 175 1453.41 175C1453.4 175 1453.4 175 1453.39 175C1453.39 175 1453.38 175 1453.38 175C1453.38 175 1453.37 175 1453.37 175C1453.36 175 1453.36 175 1453.35 175C1453.35 175 1453.34 175 1453.34 175C1453.33 175 1453.33 175 1453.32 175C1453.32 175 1453.32 175 1453.31 175C1453.31 175 1453.3 175 1453.3 175C1453.29 175 1453.29 175 1453.28 175C1453.28 175 1453.27 175 1453.27 175C1453.27 175 1453.26 175 1453.26 175C1453.25 175 1453.25 175 1453.24 175C1453.24 175 1453.23 175 1453.23 175C1453.22 175 1453.22 175 1453.22 175C1453.21 175 1453.21 175 1453.2 175C1453.2 175 1453.19 175 1453.19 175C1453.18 175 1453.18 175 1453.18 175C1453.17 175 1453.17 175 1453.16 175C1453.16 175 1453.15 175 1453.15 175C1453.14 175 1453.14 175 1453.14 175C1453.13 175 1453.13 175 1453.12 175C1453.12 175 1453.11 175 1453.11 175C1453.1 175 1453.1 175 1453.09 175C1453.09 175 1453.09 175 1453.08 175C1453.08 175 1453.07 175 1453.07 175C1453.06 175 1453.06 175 1453.05 175C1453.05 175 1453.05 175 1453.04 175C1453.04 175 1453.03 175 1453.03 175C1453.02 175 1453.02 175 1453.02 175C1453.01 175 1453.01 175 1453 175C1453 175 1452.99 175 1452.99 175C1452.98 175 1452.98 175 1452.98 175C1452.97 175 1452.97 175 1452.96 175C1452.96 175 1452.95 175 1452.95 175C1452.94 175 1452.94 175 1452.94 175C1452.93 175 1452.93 175 1452.92 175C1452.92 175 1452.91 175 1452.91 175C1452.91 175 1452.9 175 1452.9 175C1452.89 175 1452.89 175 1452.88 175C1452.88 175 1452.88 175 1452.87 175C1452.87 175 1452.86 175 1452.86 175C1452.85 175 1452.85 175 1452.84 175C1452.84 175 1452.84 175 1452.83 175C1452.83 175 1452.82 175 1452.82 175C1452.81 175 1452.81 175 1452.81 175C1452.8 175 1452.8 175 1452.79 175C1452.79 175 1452.78 175 1452.78 175C1452.78 175 1452.77 175 1452.77 175C1452.76 175 1452.76 175 1452.75 175C1452.75 175 1452.75 175 1452.74 175C1452.74 175 1452.73 175 1452.73 175C1452.72 175 1452.72 175 1452.72 175C1452.71 175 1452.71 175 1452.7 175C1452.7 175 1452.69 175 1452.69 175C1452.69 175 1452.68 175 1452.68 175C1452.67 175 1452.67 175 1452.67 175C1452.66 175 1452.66 175 1452.65 175C1452.65 175 1452.64 175 1452.64 175C1452.64 175 1452.63 175 1452.63 175C1452.62 175 1452.62 175 1452.61 175C1452.61 175 1452.61 175 1452.6 175C1452.6 175 1452.59 175 1452.59 175C1452.59 175 1452.58 175 1452.58 175C1452.57 175 1452.57 175 1452.56 175C1452.56 175 1452.56 175 1452.55 175C1452.55 175 1452.54 175 1452.54 175C1452.54 175 1452.53 175 1452.53 175C1452.52 175 1452.52 175 1452.51 175C1452.51 175 1452.51 175 1452.5 175C1452.5 175 1452.49 175 1452.49 175C1452.49 175 1452.48 175 1452.48 175C1452.47 175 1452.47 175 1452.46 175C1452.46 175 1452.46 175 1452.45 175C1452.45 175 1452.44 175 1452.44 175C1452.44 175 1452.43 175 1452.43 175C1452.42 175 1452.42 175 1452.42 175C1452.41 175 1452.41 175 1452.4 175C1452.4 175 1452.4 175 1452.39 175C1452.39 175 1452.38 175 1452.38 175C1452.37 175 1452.37 175 1452.37 175C1452.36 175 1452.36 175 1452.35 175C1452.35 175 1452.35 175 1452.34 175C1452.34 175 1452.33 175 1452.33 175C1452.33 175 1452.32 175 1452.32 175C1452.31 175 1452.31 175 1452.31 175C1452.3 175 1452.3 175 1452.29 175C1452.29 175 1452.29 175 1452.28 175C1452.28 175 1452.27 175 1452.27 175C1452.27 175 1452.26 175 1452.26 175C1452.25 175 1452.25 175 1452.25 175C1452.24 175 1452.24 175 1452.23 175C1452.23 175 1452.23 175 1452.22 175C1452.22 175 1452.21 175 1452.21 175C1452.21 175 1452.2 175 1452.2 175C1452.19 175 1452.19 175 1452.19 175C1452.18 175 1452.18 175 1452.17 175C1452.17 175 1452.17 175 1452.16 175C1452.16 175 1452.15 175 1452.15 175C1452.15 175 1452.14 175 1452.14 175C1452.13 175 1452.13 175 1452.13 175C1452.12 175 1452.12 175 1452.11 175C1452.11 175 1452.11 175 1452.1 175C1452.1 175 1452.09 175 1452.09 175C1452.09 175 1452.08 175 1452.08 175C1452.08 175 1452.07 175 1452.07 175C1452.06 175 1452.06 175 1452.06 175C1452.05 175 1452.05 175 1452.04 175C1452.04 175 1452.04 175 1452.03 175C1452.03 175 1452.02 175 1452.02 175C1452.02 175 1452.01 175 1452.01 175C1452.01 175 1452 175 1452 175C1451.99 175 1451.99 175 1451.99 175C1451.98 175 1451.98 175 1451.97 175C1451.97 175 1451.97 175 1451.96 175C1451.96 175 1451.96 175 1451.95 175C1451.95 175 1451.94 175 1451.94 175C1451.94 175 1451.93 175 1451.93 175C1451.92 175 1451.92 175 1451.92 175C1451.91 175 1451.91 175 1451.91 175C1451.9 175 1451.9 175 1451.89 175C1451.89 175 1451.89 175 1451.88 175C1451.88 175 1451.88 175 1451.87 175C1451.87 175 1451.86 175 1451.86 175C1451.86 175 1451.85 175 1451.85 175C1451.85 175 1451.84 175 1451.84 175C1451.83 175 1451.83 175 1451.83 175C1451.82 175 1451.82 175 1451.82 175C1451.81 175 1451.81 175 1451.8 175C1451.8 175 1451.8 175 1451.79 175C1451.79 175 1451.79 175 1451.78 175C1451.78 175 1451.77 175 1451.77 175C1451.77 175 1451.76 175 1451.76 175C1451.76 175 1451.75 175 1451.75 175C1451.74 175 1451.74 175 1451.74 175C1451.73 175 1451.73 175 1451.73 175C1451.72 175 1451.72 175 1451.71 175C1451.71 175 1451.71 175 1451.7 175C1451.7 175 1451.7 175 1451.69 175C1451.69 175 1451.69 175 1451.68 175C1451.68 175 1451.67 175 1451.67 175C1451.67 175 1451.66 175 1451.66 175C1451.66 175 1451.65 175 1451.65 175C1451.64 175 1451.64 175 1451.64 175C1451.63 175 1451.63 175 1451.63 175C1451.62 175 1451.62 175 1451.62 175C1451.61 175 1451.61 175 1451.6 175C1451.6 175 1451.6 175 1451.59 175C1451.59 175 1451.59 175 1451.58 175C1451.58 175 1451.58 175 1451.57 175C1451.57 175 1451.57 175 1451.56 175C1451.56 175 1451.55 175 1451.55 175C1451.55 175 1451.54 175 1451.54 175C1451.54 175 1451.53 175 1451.53 175C1451.53 175 1451.52 175 1451.52 175C1451.51 175 1451.51 175 1451.51 175C1451.5 175 1451.5 175 1451.5 175C1451.49 175 1451.49 175 1451.49 175C1451.48 175 1451.48 175 1451.48 175C1451.47 175 1451.47 175 1451.47 175C1451.46 175 1451.46 175 1451.45 175C1451.45 175 1451.45 175 1451.44 175C1451.44 175 1451.44 175 1451.43 175C1451.43 175 1451.43 175 1451.42 175C1451.42 175 1451.42 175 1451.41 175C1451.41 175 1451.41 175 1451.4 175C1451.4 175 1451.39 175 1451.39 175C1451.39 175 1451.38 175 1451.38 175C1451.38 175 1451.37 175 1451.37 175C1451.37 175 1451.36 175 1451.36 175C1451.36 175 1451.35 175 1451.35 175C1451.35 175 1451.34 175 1451.34 175C1451.34 175 1451.33 175 1451.33 175C1451.33 175 1451.32 175 1451.32 175C1451.32 175 1451.31 175 1451.31 175C1451.3 175 1451.3 175 1451.3 175C1451.29 175 1451.29 175 1451.29 175C1451.28 175 1451.28 175 1451.28 175C1451.27 175 1451.27 175 1451.27 175C1451.26 175 1451.26 175 1451.26 175C1451.25 175 1451.25 175 1451.25 175C1451.24 175 1451.24 175 1451.24 175C1451.23 175 1451.23 175 1451.23 175C1451.22 175 1451.22 175 1451.22 175C1451.21 175 1451.21 175 1451.21 175C1451.2 175 1451.2 175 1451.2 175C1451.19 175 1451.19 175 1451.19 175C1451.18 175 1451.18 175 1451.18 175C1451.17 175 1451.17 175 1451.17 175C1451.16 175 1451.16 175 1451.16 175C1451.15 175 1451.15 175 1451.15 175C1451.14 175 1451.14 175 1451.14 175C1451.13 175 1451.13 175 1451.13 175C1451.12 175 1451.12 175 1451.12 175C1451.11 175 1451.11 175 1451.11 175C1451.1 175 1451.1 175 1451.1 175C1451.09 175 1451.09 175 1451.09 175C1451.08 175 1451.08 175 1451.08 175C1451.07 175 1451.07 175 1451.07 175C1451.06 175 1451.06 175 1451.06 175C1451.05 175 1451.05 175 1451.05 175C1451.04 175 1451.04 175 1451.04 175C1451.03 175 1451.03 175 1451.03 175C1451.02 175 1451.02 175 1451.02 175C1451.01 175 1451.01 175 1451.01 175C1451 175 1451 175 1451 175C1450.99 175 1450.99 175 1450.99 175C1450.99 175 1450.98 175 1450.98 175C1450.98 175 1450.97 175 1450.97 175C1450.97 175 1450.96 175 1450.96 175C1450.96 175 1450.95 175 1450.95 175C1450.95 175 1450.94 175 1450.94 175C1450.94 175 1450.93 175 1450.93 175C1450.93 175 1450.92 175 1450.92 175C1450.92 175 1450.91 175 1450.91 175C1450.91 175 1450.91 175 1450.9 175C1450.9 175 1450.9 175 1450.89 175C1450.89 175 1450.89 175 1450.88 175C1450.88 175 1450.88 175 1450.87 175C1450.87 175 1450.87 175 1450.86 175C1450.86 175 1450.86 175 1450.86 175C1450.85 175 1450.85 175 1450.85 175C1450.84 175 1450.84 175 1450.84 175C1450.83 175 1450.83 175 1450.83 175C1450.82 175 1450.82 175 1450.82 175C1450.81 175 1450.81 175 1450.81 175C1450.81 175 1450.8 175 1450.8 175C1450.8 175 1450.79 175 1450.79 175C1450.79 175 1450.78 175 1450.78 175C1450.78 175 1450.77 175 1450.77 175C1450.77 175 1450.77 175 1450.76 175C1450.76 175 1450.76 175 1450.75 175C1450.75 175 1450.75 175 1450.74 175C1450.74 175 1450.74 175 1450.73 175C1450.73 175 1450.73 175 1450.73 175C1450.72 175 1450.72 175 1450.72 175C1450.71 175 1450.71 175 1450.71 175C1450.7 175 1450.7 175 1450.7 175C1450.7 175 1450.69 175 1450.69 175C1450.69 175 1450.68 175 1450.68 175C1450.68 175 1450.67 175 1450.67 175C1450.67 175 1450.67 175 1450.66 175C1450.66 175 1450.66 175 1450.65 175C1450.65 175 1450.65 175 1450.64 175C1450.64 175 1450.64 175 1450.64 175C1450.63 175 1450.63 175 1450.63 175C1450.62 175 1450.62 175 1450.62 175C1450.61 175 1450.61 175 1450.61 175C1450.61 175 1450.6 175 1450.6 175C1450.6 175 1450.59 175 1450.59 175C1450.59 175 1450.59 175 1450.58 175C1450.58 175 1450.58 175 1450.57 175C1450.57 175 1450.57 175 1450.57 175C1450.56 175 1450.56 175 1450.56 175C1450.55 175 1450.55 175 1450.55 175C1450.54 175 1450.54 175 1450.54 175C1450.54 175 1450.53 175 1450.53 175C1450.53 175 1450.52 175 1450.52 175C1450.52 175 1450.52 175 1450.51 175C1450.51 175 1450.51 175 1450.5 175C1450.5 175 1450.5 175 1450.5 175C1450.49 175 1450.49 175 1450.49 175C1450.48 175 1450.48 175 1450.48 175C1450.48 175 1450.47 175 1450.47 175C1450.47 175 1450.46 175 1450.46 175C1450.46 175 1450.46 175 1450.45 175C1450.45 175 1450.45 175 1450.44 175C1450.44 175 1450.44 175 1450.44 175C1450.43 175 1450.43 175 1450.43 175C1450.42 175 1450.42 175 1450.42 175C1450.42 175 1450.41 175 1450.41 175C1450.41 175 1450.41 175 1450.4 175C1450.4 175 1450.4 175 1450.39 175C1450.39 175 1450.39 175 1450.39 175C1450.38 175 1450.38 175 1450.38 175C1450.37 175 1450.37 175 1450.37 175C1450.37 175 1450.36 175 1450.36 175C1450.36 175 1450.36 175 1450.35 175C1450.35 175 1450.35 175 1450.34 175C1450.34 175 1450.34 175 1450.34 175C1450.33 175 1450.33 175 1450.33 175C1450.33 175 1450.32 175 1450.32 175C1450.32 175 1450.31 175 1450.31 175C1450.31 175 1450.31 175 1450.3 175C1450.3 175 1450.3 175 1450.3 175C1450.29 175 1450.29 175 1450.29 175C1450.28 175 1450.28 175 1450.28 175C1450.28 175 1450.27 175 1450.27 175C1450.27 175 1450.27 175 1450.26 175C1450.26 175 1450.26 175 1450.26 175C1450.25 175 1450.25 175 1450.25 175C1450.24 175 1450.24 175 1450.24 175C1450.24 175 1450.23 175 1450.23 175C1450.23 175 1450.23 175 1450.22 175C1450.22 175 1450.22 175 1450.22 175C1450.21 175 1450.21 175 1450.21 175C1450.21 175 1450.2 175 1450.2 175C1450.2 175 1450.19 175 1450.19 175C1450.19 175 1450.19 175 1450.18 175C1450.18 175 1450.18 175 1450.18 175C1450.17 175 1450.17 175 1450.17 175C1450.17 175 1450.16 175 1450.16 175C1450.16 175 1450.16 175 1450.15 175C1450.15 175 1450.15 175 1450.15 175C1450.14 175 1450.14 175 1450.14 175C1450.14 175 1450.13 175 1450.13 175C1450.13 175 1450.12 175 1450.12 175C1450.12 175 1450.12 175 1450.11 175C1450.11 175 1450.11 175 1450.11 175C1450.1 175 1450.1 175 1450.1 175C1450.1 175 1450.09 175 1450.09 175C1450.09 175 1450.09 175 1450.08 175C1450.08 175 1450.08 175 1450.08 175C1450.07 175 1450.07 175 1450.07 175C1450.07 175 1450.06 175 1450.06 175C1450.06 175 1450.06 175 1450.05 175C1450.05 175 1450.05 175 1450.05 175C1450.04 175 1450.04 175 1450.04 175C1450.04 175 1450.03 175 1450.03 175C1450.03 175 1450.03 175 1450.02 175C1450.02 175 1450.02 175 1450.02 175C1450.01 175 1450.01 175 1450.01 175C1450.01 175 1450 175 1450 175C1450 175 1450 175 1450 175C1449.99 175 1449.99 175 1449.99 175C1449.99 175 1449.98 175 1449.98 175C1449.98 175 1449.98 175 1449.97 175C1449.97 175 1449.97 175 1449.97 175C1449.96 175 1449.96 175 1449.96 175C1449.96 175 1449.95 175 1449.95 175C1449.95 175 1449.95 175 1449.94 175C1449.94 175 1449.94 175 1449.94 175C1449.93 175 1449.93 175 1449.93 175C1449.93 175 1449.93 175 1449.92 175C1449.92 175 1449.92 175 1449.92 175C1449.91 175 1449.91 175 1449.91 175C1449.91 175 1449.9 175 1449.9 175C1449.9 175 1449.9 175 1449.89 175C1449.89 175 1449.89 175 1449.89 175C1449.89 175 1449.88 175 1449.88 175C1449.88 175 1449.88 175 1449.87 175C1449.87 175 1449.87 175 1449.87 175C1449.86 175 1449.86 175 1449.86 175C1449.86 175 1449.86 175 1449.85 175C1449.85 175 1449.85 175 1449.85 175C1449.84 175 1449.84 175 1449.84 175C1449.84 175 1449.83 175 1449.83 175C1449.83 175 1449.83 175 1449.83 175C1449.82 175 1449.82 175 1449.82 175C1449.82 175 1449.81 175 1449.81 175C1449.81 175 1449.81 175 1449.81 175C1449.8 175 1449.8 175 1449.8 175C1449.8 175 1449.79 175 1449.79 175C1449.79 175 1449.79 175 1449.78 175C1449.78 175 1449.78 175 1449.78 175C1449.78 175 1449.77 175 1449.77 175C1449.77 175 1449.77 175 1449.76 175C1449.76 175 1449.76 175 1449.76 175C1449.76 175 1449.75 175 1449.75 175C1449.75 175 1449.75 175 1449.74 175C1449.74 175 1449.74 175 1449.74 175C1449.74 175 1449.73 175 1449.73 175C1449.73 175 1449.73 175 1449.73 175C1449.72 175 1449.72 175 1449.72 175C1449.72 175 1449.71 175 1449.71 175C1449.71 175 1449.71 175 1449.71 175C1449.7 175 1449.7 175 1449.7 175C1449.7 175 1449.7 175 1449.69 175C1449.69 175 1449.69 175 1449.69 175C1449.68 175 1449.68 175 1449.68 175C1449.68 175 1449.68 175 1449.67 175C1449.67 175 1449.67 175 1449.67 175C1449.67 175 1449.66 175 1449.66 175C1449.66 175 1449.66 175 1449.65 175C1449.65 175 1449.65 175 1449.65 175C1449.65 175 1449.64 175 1449.64 175C1449.64 175 1449.64 175 1449.64 175C1449.63 175 1449.63 175 1449.63 175C1449.63 175 1449.63 175 1449.62 175C1449.62 175 1449.62 175 1449.62 175C1449.62 175 1449.61 175 1449.61 175C1449.61 175 1449.61 175 1449.6 175C1449.6 175 1449.6 175 1449.6 175C1449.6 175 1449.59 175 1449.59 175C1449.59 175 1449.59 175 1449.59 175C1449.58 175 1449.58 175 1449.58 175C1449.58 175 1449.58 175 1449.57 175C1449.57 175 1449.57 175 1449.57 175C1449.57 175 1449.56 175 1449.56 175C1449.56 175 1449.56 175 1449.56 175C1449.55 175 1449.55 175 1449.55 175C1449.55 175 1449.55 175 1449.54 175C1449.54 175 1449.54 175 1449.54 175C1449.54 175 1449.53 175 1449.53 175C1449.53 175 1449.53 175 1449.53 175C1449.52 175 1449.52 175 1449.52 175C1449.52 175 1449.52 175 1449.52 175C1449.51 175 1449.51 175 1449.51 175C1449.51 175 1449.51 175 1449.5 175C1449.5 175 1449.5 175 1449.5 175C1449.5 175 1449.49 175 1449.49 175C1449.49 175 1449.49 175 1449.49 175C1449.48 175 1449.48 175 1449.48 175C1449.48 175 1449.48 175 1449.47 175C1449.47 175 1449.47 175 1449.47 175C1449.47 175 1449.47 175 1449.46 175C1449.46 175 1449.46 175 1449.46 175C1449.46 175 1449.45 175 1449.45 175C1449.45 175 1449.45 175 1449.45 175C1449.44 175 1449.44 175 1449.44 175C1449.44 175 1449.44 175 1449.44 175C1449.43 175 1449.43 175 1449.43 175C1449.43 175 1449.43 175 1449.42 175C1449.42 175 1449.42 175 1449.42 175C1449.42 175 1449.42 175 1449.41 175C1449.41 175 1449.41 175 1449.41 175C1449.41 175 1449.4 175 1449.4 175C1449.4 175 1449.4 175 1449.4 175C1449.4 175 1449.39 175 1449.39 175C1449.39 175 1449.39 175 1449.39 175C1449.38 175 1449.38 175 1449.38 175C1449.38 175 1449.38 175 1449.38 175C1449.37 175 1449.37 175 1449.37 175C1449.37 175 1449.37 175 1449.36 175C1449.36 175 1449.36 175 1449.36 175C1449.36 175 1449.36 175 1449.35 175C1449.35 175 1449.35 175 1449.35 175C1449.35 175 1449.35 175 1449.34 175C1449.34 175 1449.34 175 1449.34 175C1449.34 175 1449.33 175 1449.33 175C1449.33 175 1449.33 175 1449.33 175V177C1449.33 177 1449.33 177 1449.33 177C1449.33 177 1449.34 177 1449.34 177C1449.34 177 1449.34 177 1449.34 177C1449.35 177 1449.35 177 1449.35 177C1449.35 177 1449.35 177 1449.35 177C1449.36 177 1449.36 177 1449.36 177C1449.36 177 1449.36 177 1449.36 177C1449.37 177 1449.37 177 1449.37 177C1449.37 177 1449.37 177 1449.38 177C1449.38 177 1449.38 177 1449.38 177C1449.38 177 1449.38 177 1449.39 177C1449.39 177 1449.39 177 1449.39 177C1449.39 177 1449.4 177 1449.4 177C1449.4 177 1449.4 177 1449.4 177C1449.4 177 1449.41 177 1449.41 177C1449.41 177 1449.41 177 1449.41 177C1449.42 177 1449.42 177 1449.42 177C1449.42 177 1449.42 177 1449.42 177C1449.43 177 1449.43 177 1449.43 177C1449.43 177 1449.43 177 1449.44 177C1449.44 177 1449.44 177 1449.44 177C1449.44 177 1449.44 177 1449.45 177C1449.45 177 1449.45 177 1449.45 177C1449.45 177 1449.46 177 1449.46 177C1449.46 177 1449.46 177 1449.46 177C1449.47 177 1449.47 177 1449.47 177C1449.47 177 1449.47 177 1449.47 177C1449.48 177 1449.48 177 1449.48 177C1449.48 177 1449.48 177 1449.49 177C1449.49 177 1449.49 177 1449.49 177C1449.49 177 1449.5 177 1449.5 177C1449.5 177 1449.5 177 1449.5 177C1449.51 177 1449.51 177 1449.51 177C1449.51 177 1449.51 177 1449.52 177C1449.52 177 1449.52 177 1449.52 177C1449.52 177 1449.52 177 1449.53 177C1449.53 177 1449.53 177 1449.53 177C1449.53 177 1449.54 177 1449.54 177C1449.54 177 1449.54 177 1449.54 177C1449.55 177 1449.55 177 1449.55 177C1449.55 177 1449.55 177 1449.56 177C1449.56 177 1449.56 177 1449.56 177C1449.56 177 1449.57 177 1449.57 177C1449.57 177 1449.57 177 1449.57 177C1449.58 177 1449.58 177 1449.58 177C1449.58 177 1449.58 177 1449.59 177C1449.59 177 1449.59 177 1449.59 177C1449.59 177 1449.6 177 1449.6 177C1449.6 177 1449.6 177 1449.6 177C1449.61 177 1449.61 177 1449.61 177C1449.61 177 1449.62 177 1449.62 177C1449.62 177 1449.62 177 1449.62 177C1449.63 177 1449.63 177 1449.63 177C1449.63 177 1449.63 177 1449.64 177C1449.64 177 1449.64 177 1449.64 177C1449.64 177 1449.65 177 1449.65 177C1449.65 177 1449.65 177 1449.65 177C1449.66 177 1449.66 177 1449.66 177C1449.66 177 1449.67 177 1449.67 177C1449.67 177 1449.67 177 1449.67 177C1449.68 177 1449.68 177 1449.68 177C1449.68 177 1449.68 177 1449.69 177C1449.69 177 1449.69 177 1449.69 177C1449.7 177 1449.7 177 1449.7 177C1449.7 177 1449.7 177 1449.71 177C1449.71 177 1449.71 177 1449.71 177C1449.71 177 1449.72 177 1449.72 177C1449.72 177 1449.72 177 1449.73 177C1449.73 177 1449.73 177 1449.73 177C1449.73 177 1449.74 177 1449.74 177C1449.74 177 1449.74 177 1449.74 177C1449.75 177 1449.75 177 1449.75 177C1449.75 177 1449.76 177 1449.76 177C1449.76 177 1449.76 177 1449.76 177C1449.77 177 1449.77 177 1449.77 177C1449.77 177 1449.78 177 1449.78 177C1449.78 177 1449.78 177 1449.78 177C1449.79 177 1449.79 177 1449.79 177C1449.79 177 1449.8 177 1449.8 177C1449.8 177 1449.8 177 1449.81 177C1449.81 177 1449.81 177 1449.81 177C1449.81 177 1449.82 177 1449.82 177C1449.82 177 1449.82 177 1449.83 177C1449.83 177 1449.83 177 1449.83 177C1449.83 177 1449.84 177 1449.84 177C1449.84 177 1449.84 177 1449.85 177C1449.85 177 1449.85 177 1449.85 177C1449.86 177 1449.86 177 1449.86 177C1449.86 177 1449.86 177 1449.87 177C1449.87 177 1449.87 177 1449.87 177C1449.88 177 1449.88 177 1449.88 177C1449.88 177 1449.89 177 1449.89 177C1449.89 177 1449.89 177 1449.89 177C1449.9 177 1449.9 177 1449.9 177C1449.9 177 1449.91 177 1449.91 177C1449.91 177 1449.91 177 1449.92 177C1449.92 177 1449.92 177 1449.92 177C1449.93 177 1449.93 177 1449.93 177C1449.93 177 1449.93 177 1449.94 177C1449.94 177 1449.94 177 1449.94 177C1449.95 177 1449.95 177 1449.95 177C1449.95 177 1449.96 177 1449.96 177C1449.96 177 1449.96 177 1449.97 177C1449.97 177 1449.97 177 1449.97 177C1449.98 177 1449.98 177 1449.98 177C1449.98 177 1449.99 177 1449.99 177C1449.99 177 1449.99 177 1450 177C1450 177 1450 177 1450 177C1450 177 1450.01 177 1450.01 177C1450.01 177 1450.01 177 1450.02 177C1450.02 177 1450.02 177 1450.02 177C1450.03 177 1450.03 177 1450.03 177C1450.03 177 1450.04 177 1450.04 177C1450.04 177 1450.04 177 1450.05 177C1450.05 177 1450.05 177 1450.05 177C1450.06 177 1450.06 177 1450.06 177C1450.06 177 1450.07 177 1450.07 177C1450.07 177 1450.07 177 1450.08 177C1450.08 177 1450.08 177 1450.08 177C1450.09 177 1450.09 177 1450.09 177C1450.09 177 1450.1 177 1450.1 177C1450.1 177 1450.1 177 1450.11 177C1450.11 177 1450.11 177 1450.11 177C1450.12 177 1450.12 177 1450.12 177C1450.12 177 1450.13 177 1450.13 177C1450.13 177 1450.14 177 1450.14 177C1450.14 177 1450.14 177 1450.15 177C1450.15 177 1450.15 177 1450.15 177C1450.16 177 1450.16 177 1450.16 177C1450.16 177 1450.17 177 1450.17 177C1450.17 177 1450.17 177 1450.18 177C1450.18 177 1450.18 177 1450.18 177C1450.19 177 1450.19 177 1450.19 177C1450.19 177 1450.2 177 1450.2 177C1450.2 177 1450.21 177 1450.21 177C1450.21 177 1450.21 177 1450.22 177C1450.22 177 1450.22 177 1450.22 177C1450.23 177 1450.23 177 1450.23 177C1450.23 177 1450.24 177 1450.24 177C1450.24 177 1450.24 177 1450.25 177C1450.25 177 1450.25 177 1450.26 177C1450.26 177 1450.26 177 1450.26 177C1450.27 177 1450.27 177 1450.27 177C1450.27 177 1450.28 177 1450.28 177C1450.28 177 1450.28 177 1450.29 177C1450.29 177 1450.29 177 1450.3 177C1450.3 177 1450.3 177 1450.3 177C1450.31 177 1450.31 177 1450.31 177C1450.31 177 1450.32 177 1450.32 177C1450.32 177 1450.33 177 1450.33 177C1450.33 177 1450.33 177 1450.34 177C1450.34 177 1450.34 177 1450.34 177C1450.35 177 1450.35 177 1450.35 177C1450.36 177 1450.36 177 1450.36 177C1450.36 177 1450.37 177 1450.37 177C1450.37 177 1450.37 177 1450.38 177C1450.38 177 1450.38 177 1450.39 177C1450.39 177 1450.39 177 1450.39 177C1450.4 177 1450.4 177 1450.4 177C1450.41 177 1450.41 177 1450.41 177C1450.41 177 1450.42 177 1450.42 177C1450.42 177 1450.42 177 1450.43 177C1450.43 177 1450.43 177 1450.44 177C1450.44 177 1450.44 177 1450.44 177C1450.45 177 1450.45 177 1450.45 177C1450.46 177 1450.46 177 1450.46 177C1450.46 177 1450.47 177 1450.47 177C1450.47 177 1450.48 177 1450.48 177C1450.48 177 1450.48 177 1450.49 177C1450.49 177 1450.49 177 1450.5 177C1450.5 177 1450.5 177 1450.5 177C1450.51 177 1450.51 177 1450.51 177C1450.52 177 1450.52 177 1450.52 177C1450.52 177 1450.53 177 1450.53 177C1450.53 177 1450.54 177 1450.54 177C1450.54 177 1450.54 177 1450.55 177C1450.55 177 1450.55 177 1450.56 177C1450.56 177 1450.56 177 1450.57 177C1450.57 177 1450.57 177 1450.57 177C1450.58 177 1450.58 177 1450.58 177C1450.59 177 1450.59 177 1450.59 177C1450.59 177 1450.6 177 1450.6 177C1450.6 177 1450.61 177 1450.61 177C1450.61 177 1450.61 177 1450.62 177C1450.62 177 1450.62 177 1450.63 177C1450.63 177 1450.63 177 1450.64 177C1450.64 177 1450.64 177 1450.64 177C1450.65 177 1450.65 177 1450.65 177C1450.66 177 1450.66 177 1450.66 177C1450.67 177 1450.67 177 1450.67 177C1450.67 177 1450.68 177 1450.68 177C1450.68 177 1450.69 177 1450.69 177C1450.69 177 1450.7 177 1450.7 177C1450.7 177 1450.7 177 1450.71 177C1450.71 177 1450.71 177 1450.72 177C1450.72 177 1450.72 177 1450.73 177C1450.73 177 1450.73 177 1450.73 177C1450.74 177 1450.74 177 1450.74 177C1450.75 177 1450.75 177 1450.75 177C1450.76 177 1450.76 177 1450.76 177C1450.77 177 1450.77 177 1450.77 177C1450.77 177 1450.78 177 1450.78 177C1450.78 177 1450.79 177 1450.79 177C1450.79 177 1450.8 177 1450.8 177C1450.8 177 1450.81 177 1450.81 177C1450.81 177 1450.81 177 1450.82 177C1450.82 177 1450.82 177 1450.83 177C1450.83 177 1450.83 177 1450.84 177C1450.84 177 1450.84 177 1450.85 177C1450.85 177 1450.85 177 1450.86 177C1450.86 177 1450.86 177 1450.86 177C1450.87 177 1450.87 177 1450.87 177C1450.88 177 1450.88 177 1450.88 177C1450.89 177 1450.89 177 1450.89 177C1450.9 177 1450.9 177 1450.9 177C1450.91 177 1450.91 177 1450.91 177C1450.91 177 1450.92 177 1450.92 177C1450.92 177 1450.93 177 1450.93 177C1450.93 177 1450.94 177 1450.94 177C1450.94 177 1450.95 177 1450.95 177C1450.95 177 1450.96 177 1450.96 177C1450.96 177 1450.97 177 1450.97 177C1450.97 177 1450.98 177 1450.98 177C1450.98 177 1450.99 177 1450.99 177C1450.99 177 1450.99 177 1451 177C1451 177 1451 177 1451.01 177C1451.01 177 1451.01 177 1451.02 177C1451.02 177 1451.02 177 1451.03 177C1451.03 177 1451.03 177 1451.04 177C1451.04 177 1451.04 177 1451.05 177C1451.05 177 1451.05 177 1451.06 177C1451.06 177 1451.06 177 1451.07 177C1451.07 177 1451.07 177 1451.08 177C1451.08 177 1451.08 177 1451.09 177C1451.09 177 1451.09 177 1451.1 177C1451.1 177 1451.1 177 1451.11 177C1451.11 177 1451.11 177 1451.12 177C1451.12 177 1451.12 177 1451.13 177C1451.13 177 1451.13 177 1451.14 177C1451.14 177 1451.14 177 1451.15 177C1451.15 177 1451.15 177 1451.16 177C1451.16 177 1451.16 177 1451.17 177C1451.17 177 1451.17 177 1451.18 177C1451.18 177 1451.18 177 1451.19 177C1451.19 177 1451.19 177 1451.2 177C1451.2 177 1451.2 177 1451.21 177C1451.21 177 1451.21 177 1451.22 177C1451.22 177 1451.22 177 1451.23 177C1451.23 177 1451.23 177 1451.24 177C1451.24 177 1451.24 177 1451.25 177C1451.25 177 1451.25 177 1451.26 177C1451.26 177 1451.26 177 1451.27 177C1451.27 177 1451.27 177 1451.28 177C1451.28 177 1451.28 177 1451.29 177C1451.29 177 1451.29 177 1451.3 177C1451.3 177 1451.3 177 1451.31 177C1451.31 177 1451.32 177 1451.32 177C1451.32 177 1451.33 177 1451.33 177C1451.33 177 1451.34 177 1451.34 177C1451.34 177 1451.35 177 1451.35 177C1451.35 177 1451.36 177 1451.36 177C1451.36 177 1451.37 177 1451.37 177C1451.37 177 1451.38 177 1451.38 177C1451.38 177 1451.39 177 1451.39 177C1451.39 177 1451.4 177 1451.4 177C1451.41 177 1451.41 177 1451.41 177C1451.42 177 1451.42 177 1451.42 177C1451.43 177 1451.43 177 1451.43 177C1451.44 177 1451.44 177 1451.44 177C1451.45 177 1451.45 177 1451.45 177C1451.46 177 1451.46 177 1451.47 177C1451.47 177 1451.47 177 1451.48 177C1451.48 177 1451.48 177 1451.49 177C1451.49 177 1451.49 177 1451.5 177C1451.5 177 1451.5 177 1451.51 177C1451.51 177 1451.51 177 1451.52 177C1451.52 177 1451.53 177 1451.53 177C1451.53 177 1451.54 177 1451.54 177C1451.54 177 1451.55 177 1451.55 177C1451.55 177 1451.56 177 1451.56 177C1451.57 177 1451.57 177 1451.57 177C1451.58 177 1451.58 177 1451.58 177C1451.59 177 1451.59 177 1451.59 177C1451.6 177 1451.6 177 1451.6 177C1451.61 177 1451.61 177 1451.62 177C1451.62 177 1451.62 177 1451.63 177C1451.63 177 1451.63 177 1451.64 177C1451.64 177 1451.64 177 1451.65 177C1451.65 177 1451.66 177 1451.66 177C1451.66 177 1451.67 177 1451.67 177C1451.67 177 1451.68 177 1451.68 177C1451.69 177 1451.69 177 1451.69 177C1451.7 177 1451.7 177 1451.7 177C1451.71 177 1451.71 177 1451.71 177C1451.72 177 1451.72 177 1451.73 177C1451.73 177 1451.73 177 1451.74 177C1451.74 177 1451.74 177 1451.75 177C1451.75 177 1451.76 177 1451.76 177C1451.76 177 1451.77 177 1451.77 177C1451.77 177 1451.78 177 1451.78 177C1451.79 177 1451.79 177 1451.79 177C1451.8 177 1451.8 177 1451.8 177C1451.81 177 1451.81 177 1451.82 177C1451.82 177 1451.82 177 1451.83 177C1451.83 177 1451.83 177 1451.84 177C1451.84 177 1451.85 177 1451.85 177C1451.85 177 1451.86 177 1451.86 177C1451.86 177 1451.87 177 1451.87 177C1451.88 177 1451.88 177 1451.88 177C1451.89 177 1451.89 177 1451.89 177C1451.9 177 1451.9 177 1451.91 177C1451.91 177 1451.91 177 1451.92 177C1451.92 177 1451.92 177 1451.93 177C1451.93 177 1451.94 177 1451.94 177C1451.94 177 1451.95 177 1451.95 177C1451.96 177 1451.96 177 1451.96 177C1451.97 177 1451.97 177 1451.97 177C1451.98 177 1451.98 177 1451.99 177C1451.99 177 1451.99 177 1452 177C1452 177 1452.01 177 1452.01 177C1452.01 177 1452.02 177 1452.02 177C1452.02 177 1452.03 177 1452.03 177C1452.04 177 1452.04 177 1452.04 177C1452.05 177 1452.05 177 1452.06 177C1452.06 177 1452.06 177 1452.07 177C1452.07 177 1452.08 177 1452.08 177C1452.08 177 1452.09 177 1452.09 177C1452.09 177 1452.1 177 1452.1 177C1452.11 177 1452.11 177 1452.11 177C1452.12 177 1452.12 177 1452.13 177C1452.13 177 1452.13 177 1452.14 177C1452.14 177 1452.15 177 1452.15 177C1452.15 177 1452.16 177 1452.16 177C1452.17 177 1452.17 177 1452.17 177C1452.18 177 1452.18 177 1452.19 177C1452.19 177 1452.19 177 1452.2 177C1452.2 177 1452.21 177 1452.21 177C1452.21 177 1452.22 177 1452.22 177C1452.23 177 1452.23 177 1452.23 177C1452.24 177 1452.24 177 1452.25 177C1452.25 177 1452.25 177 1452.26 177C1452.26 177 1452.27 177 1452.27 177C1452.27 177 1452.28 177 1452.28 177C1452.29 177 1452.29 177 1452.29 177C1452.3 177 1452.3 177 1452.31 177C1452.31 177 1452.31 177 1452.32 177C1452.32 177 1452.33 177 1452.33 177C1452.33 177 1452.34 177 1452.34 177C1452.35 177 1452.35 177 1452.35 177C1452.36 177 1452.36 177 1452.37 177C1452.37 177 1452.37 177 1452.38 177C1452.38 177 1452.39 177 1452.39 177C1452.4 177 1452.4 177 1452.4 177C1452.41 177 1452.41 177 1452.42 177C1452.42 177 1452.42 177 1452.43 177C1452.43 177 1452.44 177 1452.44 177C1452.44 177 1452.45 177 1452.45 177C1452.46 177 1452.46 177 1452.46 177C1452.47 177 1452.47 177 1452.48 177C1452.48 177 1452.49 177 1452.49 177C1452.49 177 1452.5 177 1452.5 177C1452.51 177 1452.51 177 1452.51 177C1452.52 177 1452.52 177 1452.53 177C1452.53 177 1452.54 177 1452.54 177C1452.54 177 1452.55 177 1452.55 177C1452.56 177 1452.56 177 1452.56 177C1452.57 177 1452.57 177 1452.58 177C1452.58 177 1452.59 177 1452.59 177C1452.59 177 1452.6 177 1452.6 177C1452.61 177 1452.61 177 1452.61 177C1452.62 177 1452.62 177 1452.63 177C1452.63 177 1452.64 177 1452.64 177C1452.64 177 1452.65 177 1452.65 177C1452.66 177 1452.66 177 1452.67 177C1452.67 177 1452.67 177 1452.68 177C1452.68 177 1452.69 177 1452.69 177C1452.69 177 1452.7 177 1452.7 177C1452.71 177 1452.71 177 1452.72 177C1452.72 177 1452.72 177 1452.73 177C1452.73 177 1452.74 177 1452.74 177C1452.75 177 1452.75 177 1452.75 177C1452.76 177 1452.76 177 1452.77 177C1452.77 177 1452.78 177 1452.78 177C1452.78 177 1452.79 177 1452.79 177C1452.8 177 1452.8 177 1452.81 177C1452.81 177 1452.81 177 1452.82 177C1452.82 177 1452.83 177 1452.83 177C1452.84 177 1452.84 177 1452.84 177C1452.85 177 1452.85 177 1452.86 177C1452.86 177 1452.87 177 1452.87 177C1452.88 177 1452.88 177 1452.88 177C1452.89 177 1452.89 177 1452.9 177C1452.9 177 1452.91 177 1452.91 177C1452.91 177 1452.92 177 1452.92 177C1452.93 177 1452.93 177 1452.94 177C1452.94 177 1452.94 177 1452.95 177C1452.95 177 1452.96 177 1452.96 177C1452.97 177 1452.97 177 1452.98 177C1452.98 177 1452.98 177 1452.99 177C1452.99 177 1453 177 1453 177C1453.01 177 1453.01 177 1453.02 177C1453.02 177 1453.02 177 1453.03 177C1453.03 177 1453.04 177 1453.04 177C1453.05 177 1453.05 177 1453.05 177C1453.06 177 1453.06 177 1453.07 177C1453.07 177 1453.08 177 1453.08 177C1453.09 177 1453.09 177 1453.09 177C1453.1 177 1453.1 177 1453.11 177C1453.11 177 1453.12 177 1453.12 177C1453.13 177 1453.13 177 1453.14 177C1453.14 177 1453.14 177 1453.15 177C1453.15 177 1453.16 177 1453.16 177C1453.17 177 1453.17 177 1453.18 177C1453.18 177 1453.18 177 1453.19 177C1453.19 177 1453.2 177 1453.2 177C1453.21 177 1453.21 177 1453.22 177C1453.22 177 1453.22 177 1453.23 177C1453.23 177 1453.24 177 1453.24 177C1453.25 177 1453.25 177 1453.26 177C1453.26 177 1453.27 177 1453.27 177C1453.27 177 1453.28 177 1453.28 177C1453.29 177 1453.29 177 1453.3 177C1453.3 177 1453.31 177 1453.31 177C1453.32 177 1453.32 177 1453.32 177C1453.33 177 1453.33 177 1453.34 177C1453.34 177 1453.35 177 1453.35 177C1453.36 177 1453.36 177 1453.37 177C1453.37 177 1453.38 177 1453.38 177C1453.38 177 1453.39 177 1453.39 177C1453.4 177 1453.4 177 1453.41 177C1453.41 177 1453.42 177 1453.42 177C1453.43 177 1453.43 177 1453.44 177C1453.44 177 1453.44 177 1453.45 177C1453.45 177 1453.46 177 1453.46 177C1453.47 177 1453.47 177 1453.48 177C1453.48 177 1453.49 177 1453.49 177C1453.5 177 1453.5 177 1453.5 177C1453.51 177 1453.51 177 1453.52 177C1453.52 177 1453.53 177 1453.53 177C1453.54 177 1453.54 177 1453.55 177C1453.55 177 1453.56 177 1453.56 177C1453.57 177 1453.57 177 1453.57 177C1453.58 177 1453.58 177 1453.59 177C1453.59 177 1453.6 177 1453.6 177C1453.61 177 1453.61 177 1453.62 177C1453.62 177 1453.63 177 1453.63 177C1453.64 177 1453.64 177 1453.65 177C1453.65 177 1453.65 177 1453.66 177C1453.66 177 1453.67 177 1453.67 177C1453.68 177 1453.68 177 1453.69 177C1453.69 177 1453.7 177 1453.7 177C1453.71 177 1453.71 177 1453.72 177C1453.72 177 1453.73 177 1453.73 177C1453.74 177 1453.74 177 1453.74 177C1453.75 177 1453.75 177 1453.76 177C1453.76 177 1453.77 177 1453.77 177C1453.78 177 1453.78 177 1453.79 177C1453.79 177 1453.8 177 1453.8 177C1453.81 177 1453.81 177 1453.82 177C1453.82 177 1453.83 177 1453.83 177C1453.84 177 1453.84 177 1453.85 177C1453.85 177 1453.86 177 1453.86 177C1453.86 177 1453.87 177 1453.87 177C1453.88 177 1453.88 177 1453.89 177C1453.89 177 1453.9 177 1453.9 177C1453.91 177 1453.91 177 1453.92 177C1453.92 177 1453.93 177 1453.93 177C1453.94 177 1453.94 177 1453.95 177C1453.95 177 1453.96 177 1453.96 177C1453.97 177 1453.97 177 1453.98 177C1453.98 177 1453.99 177 1453.99 177C1454 177 1454 177 1454.01 177C1454.01 177 1454.02 177 1454.02 177C1454.03 177 1454.03 177 1454.03 177C1454.04 177 1454.04 177 1454.05 177C1454.05 177 1454.06 177 1454.06 177C1454.07 177 1454.07 177 1454.08 177C1454.08 177 1454.09 177 1454.09 177C1454.1 177 1454.1 177 1454.11 177C1454.11 177 1454.12 177 1454.12 177C1454.13 177 1454.13 177 1454.14 177C1454.14 177 1454.15 177 1454.15 177C1454.16 177 1454.16 177 1454.17 177C1454.17 177 1454.18 177 1454.18 177C1454.19 177 1454.19 177 1454.2 177C1454.2 177 1454.21 177 1454.21 177C1454.22 177 1454.22 177 1454.23 177C1454.23 177 1454.24 177 1454.24 177C1454.25 177 1454.25 177 1454.26 177C1454.26 177 1454.27 177 1454.27 177C1454.28 177 1454.28 177 1454.29 177C1454.29 177 1454.3 177 1454.3 177C1454.31 177 1454.31 177 1454.32 177C1454.32 177 1454.33 177 1454.33 177C1454.34 177 1454.34 177 1454.35 177C1454.35 177 1454.36 177 1454.36 177C1454.37 177 1454.37 177 1454.38 177C1454.38 177 1454.39 177 1454.39 177C1454.4 177 1454.4 177 1454.41 177C1454.41 177 1454.42 177 1454.42 177C1454.43 177 1454.43 177 1454.44 177C1454.44 177 1454.45 177 1454.45 177C1454.46 177 1454.46 177 1454.47 177C1454.47 177 1454.48 177 1454.48 177C1454.49 177 1454.5 177 1454.5 177C1454.51 177 1454.51 177 1454.52 177C1454.52 177 1454.53 177 1454.53 177C1454.54 177 1454.54 177 1454.55 177C1454.55 177 1454.56 177 1454.56 177C1454.57 177 1454.57 177 1454.58 177C1454.58 177 1454.59 177 1454.59 177C1454.6 177 1454.6 177 1454.61 177V175ZM1649.23 176H1648.23V177H1649.23V176ZM1649.23 26.4V25.4H1648.23V26.4H1649.23ZM1680.47 26.4H1681.47V25.4H1680.47V26.4ZM1680.47 176V177H1681.47V176H1680.47ZM1619.97 87.56H1618.97V88.56H1619.97V87.56ZM1619.97 59.62V58.62H1618.97V59.62H1619.97ZM1714.13 59.62H1715.13V58.62H1714.13V59.62ZM1714.13 87.56V88.56H1715.13V87.56H1714.13ZM1650.23 176V26.4H1648.23V176H1650.23ZM1649.23 27.4H1680.47V25.4H1649.23V27.4ZM1679.47 26.4V176H1681.47V26.4H1679.47ZM1680.47 175H1649.23V177H1680.47V175ZM1620.97 87.56V59.62H1618.97V87.56H1620.97ZM1619.97 60.62H1714.13V58.62H1619.97V60.62ZM1713.13 59.62V87.56H1715.13V59.62H1713.13ZM1714.13 86.56H1619.97V88.56H1714.13V86.56ZM1798.09 125.4L1797.11 125.612L1797.29 126.4H1798.09V125.4ZM1791.27 93.94L1791.06 92.9622L1790.08 93.1722L1790.29 94.1519L1791.27 93.94ZM1803.81 90.86L1803.55 89.8937L1803.55 89.896L1803.81 90.86ZM1816.35 86.9L1816.7 87.8377L1816.71 87.8322L1816.73 87.8261L1816.35 86.9ZM1826.91 81.18L1826.33 80.3663L1826.91 81.18ZM1834.17 73.92L1833.36 73.3345L1833.35 73.3497L1833.34 73.3653L1834.17 73.92ZM1833.51 56.54L1832.78 57.2239L1832.79 57.2357L1832.8 57.2471L1833.51 56.54ZM1824.93 51.48L1824.6 52.4245L1824.63 52.4329L1824.65 52.44L1824.93 51.48ZM1791.05 55.44L1791.53 56.3186L1791.54 56.3146L1791.54 56.3106L1791.05 55.44ZM1773.23 71.94L1772.53 72.6507L1773.37 73.4848L1774.05 72.5135L1773.23 71.94ZM1751.67 50.6L1750.88 49.9885L1750.34 50.6885L1750.97 51.3107L1751.67 50.6ZM1778.95 27.72L1779.41 28.607L1779.42 28.6047L1778.95 27.72ZM1843.63 25.08L1843.21 25.9866L1843.22 25.9909L1843.23 25.9951L1843.63 25.08ZM1863.87 40.92L1863.06 41.5029L1863.07 41.5114L1863.87 40.92ZM1866.95 79.64L1866.07 79.1629L1866.07 79.1727L1866.06 79.1826L1866.95 79.64ZM1855.73 93.94L1855.06 93.2001L1855.05 93.2052L1855.05 93.2105L1855.73 93.94ZM1839.45 105.38L1838.99 104.494L1838.98 104.499L1839.45 105.38ZM1820.09 113.08L1819.83 112.116L1819.23 112.281L1819.11 112.887L1820.09 113.08ZM1817.67 125.4V126.4H1818.49L1818.65 125.593L1817.67 125.4ZM1793.47 146.74L1792.78 146.019L1792.77 146.026L1792.76 146.033L1793.47 146.74ZM1826.47 146.3L1825.79 147.036L1825.8 147.043L1825.81 147.051L1826.47 146.3ZM1826.25 172.92L1825.56 172.199L1826.25 172.92ZM1793.47 173.58L1792.79 174.316L1792.8 174.323L1792.81 174.331L1793.47 173.58ZM1799.07 125.188L1792.25 93.7281L1790.29 94.1519L1797.11 125.612L1799.07 125.188ZM1791.48 94.9178C1795.61 94.0335 1799.81 93.0022 1804.08 91.824L1803.55 89.896C1799.31 91.0645 1795.15 92.0864 1791.06 92.9622L1791.48 94.9178ZM1804.07 91.8262C1808.5 90.6454 1812.71 89.3161 1816.7 87.8377L1816 85.9622C1812.08 87.4172 1807.93 88.7279 1803.55 89.8938L1804.07 91.8262ZM1816.73 87.8261C1820.75 86.1871 1824.34 84.2444 1827.49 81.9937L1826.33 80.3663C1823.32 82.5156 1819.87 84.3862 1815.97 85.9739L1816.73 87.8261ZM1827.49 81.9937C1830.65 79.7366 1833.16 77.2329 1835 74.4747L1833.34 73.3653C1831.66 75.8871 1829.33 78.2234 1826.33 80.3663L1827.49 81.9937ZM1834.98 74.5055C1837 71.7054 1838.03 68.6427 1838.03 65.34H1836.03C1836.03 68.1973 1835.15 70.8545 1833.36 73.3345L1834.98 74.5055ZM1838.03 65.34C1838.03 61.5726 1836.77 58.3793 1834.22 55.8329L1832.8 57.2471C1834.95 59.394 1836.03 62.0674 1836.03 65.34H1838.03ZM1834.24 55.856C1831.9 53.3614 1828.88 51.5896 1825.21 50.52L1824.65 52.44C1828.02 53.4237 1830.72 55.0253 1832.78 57.2239L1834.24 55.856ZM1825.26 50.5355C1821.77 49.3204 1817.91 48.72 1813.71 48.72V50.72C1817.72 50.72 1821.35 51.293 1824.6 52.4245L1825.26 50.5355ZM1813.71 48.72C1805.19 48.72 1797.47 50.6646 1790.56 54.5694L1791.54 56.3106C1798.13 52.5887 1805.51 50.72 1813.71 50.72V48.72ZM1790.57 54.5614C1783.67 58.3133 1777.62 63.9274 1772.41 71.3665L1774.05 72.5135C1779.11 65.2859 1784.94 59.9001 1791.53 56.3186L1790.57 54.5614ZM1773.94 71.2293L1752.38 49.8893L1750.97 51.3107L1772.53 72.6507L1773.94 71.2293ZM1752.46 51.2114C1759.86 41.6445 1768.84 34.1125 1779.41 28.607L1778.49 26.833C1767.65 32.4741 1758.45 40.1955 1750.88 49.9885L1752.46 51.2114ZM1779.42 28.6047C1790.12 22.9644 1801.84 20.14 1814.59 20.14V18.14C1801.53 18.14 1789.49 21.0356 1778.49 26.8353L1779.42 28.6047ZM1814.59 20.14C1825.32 20.14 1834.85 22.097 1843.21 25.9866L1844.05 24.1734C1835.4 20.1429 1825.57 18.14 1814.59 18.14V20.14ZM1843.23 25.9951C1851.74 29.7465 1858.34 34.9208 1863.06 41.5029L1864.68 40.3371C1859.73 33.4258 1852.83 28.0402 1844.04 24.1649L1843.23 25.9951ZM1863.07 41.5114C1867.77 47.9328 1870.13 55.2771 1870.13 63.58H1872.13C1872.13 54.8696 1869.65 47.1072 1864.68 40.3286L1863.07 41.5114ZM1870.13 63.58C1870.13 68.9786 1868.78 74.1687 1866.07 79.1629L1867.83 80.1171C1870.69 74.8446 1872.13 69.3281 1872.13 63.58H1870.13ZM1866.06 79.1826C1863.48 84.1964 1859.82 88.8699 1855.06 93.2001L1856.4 94.6799C1861.32 90.2101 1865.14 85.3503 1867.84 80.0973L1866.06 79.1826ZM1855.05 93.2105C1850.43 97.5439 1845.07 101.306 1838.99 104.494L1839.92 106.266C1846.15 103.001 1851.65 99.1361 1856.42 94.6695L1855.05 93.2105ZM1838.98 104.499C1833.03 107.689 1826.65 110.228 1819.83 112.116L1820.36 114.044C1827.32 112.118 1833.84 109.525 1839.92 106.261L1838.98 104.499ZM1819.11 112.887L1816.69 125.207L1818.65 125.593L1821.07 113.273L1819.11 112.887ZM1817.67 124.4H1798.09V126.4H1817.67V124.4ZM1788.97 159.72C1788.97 155.01 1790.69 150.935 1794.18 147.447L1792.76 146.033C1788.92 149.879 1786.97 154.457 1786.97 159.72H1788.97ZM1794.16 147.461C1797.73 144.03 1802.95 142.24 1809.97 142.24V140.24C1802.62 140.24 1796.84 142.117 1792.78 146.019L1794.16 147.461ZM1809.97 142.24C1817.17 142.24 1822.38 143.898 1825.79 147.036L1827.15 145.564C1823.23 141.956 1817.44 140.24 1809.97 140.24V142.24ZM1825.81 147.051C1829.22 150.054 1830.97 154.233 1830.97 159.72H1832.97C1832.97 153.767 1831.05 148.999 1827.13 145.549L1825.81 147.051ZM1830.97 159.72C1830.97 164.572 1829.18 168.715 1825.56 172.199L1826.94 173.641C1830.95 169.792 1832.97 165.135 1832.97 159.72H1830.97ZM1825.56 172.199C1821.99 175.634 1816.84 177.42 1809.97 177.42V179.42C1817.18 179.42 1822.89 177.539 1826.94 173.641L1825.56 172.199ZM1809.97 177.42C1802.76 177.42 1797.54 175.831 1794.13 172.829L1792.81 174.331C1796.73 177.782 1802.51 179.42 1809.97 179.42V177.42ZM1794.15 172.844C1790.72 169.694 1788.97 165.361 1788.97 159.72H1786.97C1786.97 165.812 1788.89 170.719 1792.79 174.316L1794.15 172.844Z" fill="#3F3F3F"/>
</svg>
