<svg width="24" height="26" viewBox="0 0 24 26" fill="none"
    xmlns="http://www.w3.org/2000/svg">
    <g id="elements">
        <path id="Vector" d="M5.67384 17.0619C4.02327 18.0447 -0.304408 20.0515 2.33144 22.5627C3.61903 23.7894 5.05307 24.6667 6.85601 24.6667H17.144C18.9469 24.6667 20.381 23.7894 21.6686 22.5627C24.3044 20.0515 19.9767 18.0447 18.3262 17.0619C14.4556 14.7572 9.54438 14.7572 5.67384 17.0619Z" stroke="#F8F8F8" strokeWidth="1.5" stroke-linecap="round" stroke-linejoin="round"/>
        <path id="Ellipse 1381" d="M17.25 6.58334C17.25 9.48284 14.8995 11.8333 12 11.8333C9.10051 11.8333 6.75 9.48284 6.75 6.58334C6.75 3.68385 9.10051 1.33334 12 1.33334C14.8995 1.33334 17.25 3.68385 17.25 6.58334Z" stroke="#F8F8F8" strokeWidth="1.5"/>
    </g>
</svg>
