<svg width="60" height="60" viewBox="0 0 60 60" fill="none"
    xmlns="http://www.w3.org/2000/svg">
    <g id="elements">
        <path id="Vector" d="M23 34.3014C23.4957 35.1132 24.0839 35.8814 24.7646 36.5899C28.9909 40.9884 35.4326 41.676 40.3515 38.6526C41.2629 38.0924 42.122 37.4048 42.9051 36.5899L54.243 24.79C59.2523 19.5764 59.2523 11.1237 54.243 5.91014C49.2336 0.696617 41.1118 0.696623 36.1024 5.91014L33.6051 8.50924" stroke="white" strokeWidth="4" stroke-linecap="round"/>
        <path id="Vector_2" d="M26.3961 51.4899L23.8978 54.0899C18.8884 59.3034 10.7665 59.3034 5.75707 54.0899C0.747644 48.8763 0.747642 40.4236 5.75707 35.21L17.095 23.4101C22.1045 18.1966 30.2264 18.1966 35.2358 23.4101C35.9163 24.1184 36.5044 24.8864 37 25.6979" stroke="white" strokeWidth="4" stroke-linecap="round"/>
    </g>
</svg>
