<svg width="324" height="32" viewBox="0 0 324 32" fill="none" xmlns="http://www.w3.org/2000/svg">
<path d="M11.152 24.32C9.57333 24.32 8.12267 24.16 6.8 23.84C5.47733 23.4987 4.28267 23.0187 3.216 22.4C2.14933 21.7813 1.2 21.0347 0.368 20.16L2.992 16.48C4.37867 17.8667 5.76533 18.8373 7.152 19.392C8.53867 19.9467 9.968 20.224 11.44 20.224C12.1867 20.224 12.912 20.128 13.616 19.936C14.3413 19.744 14.928 19.4667 15.376 19.104C15.8453 18.72 16.08 18.2293 16.08 17.632C16.08 17.248 15.9627 16.9173 15.728 16.64C15.4933 16.3627 15.184 16.128 14.8 15.936C14.416 15.744 13.968 15.584 13.456 15.456C12.944 15.3067 12.4 15.1893 11.824 15.104C11.2693 14.9973 10.6933 14.912 10.096 14.848C8.752 14.6347 7.54667 14.3467 6.48 13.984C5.43467 13.6213 4.53867 13.1627 3.792 12.608C3.04533 12.032 2.48 11.3707 2.096 10.624C1.73333 9.856 1.552 8.98133 1.552 8C1.552 6.95467 1.79733 6.00533 2.288 5.152C2.77867 4.29867 3.46133 3.57333 4.336 2.976C5.21067 2.37867 6.224 1.93066 7.376 1.632C8.54933 1.312 9.808 1.152 11.152 1.152C12.624 1.152 13.936 1.30133 15.088 1.6C16.24 1.89867 17.264 2.32533 18.16 2.88C19.056 3.41333 19.792 4.05333 20.368 4.8L17.616 7.968C17.0827 7.41333 16.4533 6.93333 15.728 6.528C15.024 6.12267 14.2773 5.81333 13.488 5.6C12.6987 5.38667 11.8987 5.28 11.088 5.28C10.192 5.28 9.40267 5.376 8.72 5.568C8.05867 5.73867 7.52533 6.00533 7.12 6.368C6.736 6.70933 6.544 7.14667 6.544 7.68C6.544 8.10667 6.69333 8.48 6.992 8.8C7.29067 9.12 7.68533 9.38667 8.176 9.6C8.66667 9.792 9.232 9.96267 9.872 10.112C10.512 10.24 11.184 10.3573 11.888 10.464C13.1253 10.656 14.2987 10.9013 15.408 11.2C16.5173 11.4773 17.4987 11.8613 18.352 12.352C19.2053 12.8213 19.8667 13.44 20.336 14.208C20.8053 14.9547 21.04 15.8933 21.04 17.024C21.04 18.5387 20.6133 19.84 19.76 20.928C18.928 22.016 17.776 22.8587 16.304 23.456C14.832 24.032 13.1147 24.32 11.152 24.32ZM30.5013 24V2.24H35.0453V24H30.5013ZM26.2453 11.136V7.072H39.9412V11.136H26.2453ZM54.174 24.32C52.446 24.32 50.91 23.9467 49.566 23.2C48.2433 22.432 47.2087 21.3867 46.462 20.064C45.7153 18.7413 45.342 17.2267 45.342 15.52C45.342 13.8133 45.726 12.2987 46.494 10.976C47.262 9.65333 48.318 8.61867 49.662 7.872C51.006 7.104 52.5633 6.72 54.334 6.72C55.3793 6.72 56.3393 6.85867 57.214 7.136C58.0887 7.392 58.8567 7.73333 59.518 8.16C60.1793 8.58667 60.7127 9.06667 61.118 9.6C61.5447 10.1333 61.8007 10.656 61.886 11.168L60.798 11.2V7.072H65.31V24H60.734V19.584L61.694 19.744C61.6087 20.2987 61.3527 20.8427 60.926 21.376C60.4993 21.9093 59.9447 22.4 59.262 22.848C58.6007 23.296 57.8327 23.6587 56.958 23.936C56.0833 24.192 55.1553 24.32 54.174 24.32ZM55.358 20.384C56.4673 20.384 57.438 20.1813 58.27 19.776C59.102 19.3493 59.742 18.7733 60.19 18.048C60.638 17.3013 60.862 16.4587 60.862 15.52C60.862 14.56 60.638 13.7173 60.19 12.992C59.742 12.2667 59.102 11.7013 58.27 11.296C57.438 10.8693 56.4673 10.656 55.358 10.656C54.27 10.656 53.31 10.8693 52.478 11.296C51.6673 11.7013 51.0273 12.2667 50.558 12.992C50.0887 13.7173 49.854 14.56 49.854 15.52C49.854 16.4587 50.0887 17.3013 50.558 18.048C51.0273 18.7733 51.6673 19.3493 52.478 19.776C53.31 20.1813 54.27 20.384 55.358 20.384ZM76.604 31.36L81.052 22.688L80.924 25.216L71.484 7.072H76.732L81.276 16.576C81.66 17.28 82.012 17.9947 82.332 18.72C82.652 19.424 82.8973 20.096 83.068 20.736L82.14 20.928C82.3747 20.352 82.652 19.7013 82.972 18.976C83.292 18.2293 83.6333 17.4507 83.996 16.64L88.22 7.072H93.468L84.828 24.096L81.276 31.36H76.604ZM113.354 24V19.744H118.346V5.856H113.354V1.6H128.138V5.856H123.146V19.744H128.138V24H113.354ZM137.425 24V7.072H141.777L141.905 11.232L140.753 11.552C141.073 10.72 141.574 9.94133 142.257 9.216C142.94 8.46933 143.782 7.872 144.785 7.424C145.809 6.95467 146.918 6.72 148.113 6.72C149.649 6.72 150.929 7.01867 151.953 7.616C152.998 8.21333 153.788 9.04533 154.321 10.112C154.854 11.1787 155.121 12.4267 155.121 13.856V24H150.609V14.528C150.609 13.7173 150.438 13.024 150.097 12.448C149.756 11.8507 149.286 11.392 148.689 11.072C148.092 10.752 147.388 10.6027 146.577 10.624C145.894 10.624 145.265 10.7413 144.689 10.976C144.113 11.2107 143.622 11.5307 143.217 11.936C142.812 12.32 142.502 12.7467 142.289 13.216C142.076 13.6853 141.969 14.1547 141.969 14.624V24H139.729C139.089 24 138.577 24 138.193 24C137.809 24 137.553 24 137.425 24ZM183.297 24V5.92H175.489V1.6H196.065V5.92H188.097V24H183.297ZM208.342 24.32C206.315 24.32 204.512 23.9467 202.934 23.2C201.376 22.4533 200.15 21.4187 199.254 20.096C198.358 18.752 197.91 17.2267 197.91 15.52C197.91 13.792 198.358 12.2773 199.254 10.976C200.15 9.65333 201.376 8.61867 202.934 7.872C204.512 7.104 206.315 6.72 208.342 6.72C210.39 6.72 212.182 7.104 213.718 7.872C215.275 8.61867 216.502 9.65333 217.398 10.976C218.294 12.2773 218.742 13.792 218.742 15.52C218.742 17.2267 218.294 18.752 217.398 20.096C216.502 21.4187 215.275 22.4533 213.718 23.2C212.182 23.9467 210.39 24.32 208.342 24.32ZM208.342 20.352C209.43 20.352 210.411 20.1493 211.286 19.744C212.182 19.3387 212.886 18.7733 213.398 18.048C213.91 17.3013 214.155 16.4587 214.134 15.52C214.155 14.56 213.91 13.7173 213.398 12.992C212.886 12.2667 212.182 11.7013 211.286 11.296C210.411 10.8693 209.43 10.656 208.342 10.656C207.254 10.656 206.262 10.8693 205.366 11.296C204.491 11.7013 203.798 12.2667 203.286 12.992C202.774 13.7173 202.518 14.56 202.518 15.52C202.518 16.4587 202.774 17.3013 203.286 18.048C203.798 18.7733 204.491 19.3387 205.366 19.744C206.262 20.1493 207.254 20.352 208.342 20.352ZM232.891 24.32C231.483 24.32 230.267 24.0107 229.243 23.392C228.219 22.7733 227.429 21.8773 226.875 20.704C226.32 19.5093 226.043 18.08 226.043 16.416V7.072H230.587V15.52C230.587 16.544 230.725 17.4187 231.003 18.144C231.301 18.848 231.749 19.3813 232.347 19.744C232.965 20.1067 233.733 20.288 234.651 20.288C235.291 20.288 235.888 20.192 236.443 20C237.019 19.7867 237.52 19.4987 237.947 19.136C238.373 18.752 238.704 18.2933 238.939 17.76C239.195 17.2053 239.323 16.608 239.323 15.968V7.072H243.867V24H239.547L239.387 20.512L240.219 20.128C239.963 20.832 239.493 21.5147 238.811 22.176C238.128 22.816 237.275 23.3387 236.251 23.744C235.248 24.128 234.128 24.32 232.891 24.32ZM261.173 24.32C259.274 24.32 257.578 23.936 256.085 23.168C254.613 22.4 253.439 21.3547 252.565 20.032C251.711 18.688 251.285 17.184 251.285 15.52C251.285 13.8347 251.711 12.3307 252.565 11.008C253.439 9.68533 254.602 8.64 256.053 7.872C257.525 7.104 259.199 6.72 261.077 6.72C262.826 6.72 264.447 6.98667 265.941 7.52C267.434 8.05333 268.639 8.81067 269.557 9.792L267.093 13.056C266.666 12.608 266.133 12.2133 265.493 11.872C264.853 11.5093 264.191 11.2213 263.509 11.008C262.826 10.7947 262.111 10.688 261.365 10.688C260.277 10.688 259.317 10.9013 258.485 11.328C257.674 11.7333 257.034 12.2987 256.565 13.024C256.117 13.728 255.893 14.56 255.893 15.52C255.893 16.4587 256.127 17.2907 256.597 18.016C257.066 18.7413 257.717 19.3173 258.549 19.744C259.381 20.1493 260.33 20.352 261.397 20.352C262.25 20.352 263.018 20.256 263.701 20.064C264.383 19.872 265.002 19.6267 265.557 19.328C266.133 19.0293 266.655 18.7093 267.125 18.368L269.557 21.568C268.554 22.336 267.327 22.9867 265.877 23.52C264.447 24.0533 262.879 24.32 261.173 24.32ZM276.863 24V0.32H281.343V11.232L280.159 11.616C280.393 10.7413 280.873 9.94133 281.599 9.216C282.324 8.49067 283.209 7.89333 284.255 7.424C285.321 6.95467 286.452 6.72 287.647 6.72C289.183 6.72 290.452 7.01867 291.455 7.616C292.479 8.21333 293.247 9.04533 293.759 10.112C294.292 11.1787 294.559 12.416 294.559 13.824V24H290.047V14.56C290.047 13.728 289.876 13.0133 289.535 12.416C289.193 11.8187 288.724 11.3707 288.127 11.072C287.529 10.752 286.825 10.592 286.015 10.592C285.353 10.592 284.735 10.7093 284.159 10.944C283.604 11.1787 283.113 11.4987 282.687 11.904C282.281 12.288 281.961 12.7253 281.727 13.216C281.513 13.6853 281.407 14.176 281.407 14.688V24H279.167C278.527 24 278.015 24 277.631 24C277.247 24 276.991 24 276.863 24ZM318.703 15.968C318.468 14.7307 318.223 13.4293 317.967 12.064C317.732 10.6987 317.54 9.312 317.391 7.904C317.263 6.47467 317.199 5.09867 317.199 3.776V1.344H323.023V3.776C323.023 5.09867 322.948 6.47467 322.799 7.904C322.671 9.33333 322.489 10.7413 322.255 12.128C322.041 13.4933 321.785 14.7733 321.487 15.968H318.703ZM320.111 24.352C319.023 24.352 318.212 24.1173 317.679 23.648C317.145 23.1573 316.879 22.4853 316.879 21.632C316.879 20.9067 317.156 20.2773 317.711 19.744C318.265 19.2107 319.065 18.944 320.111 18.944C321.156 18.944 321.945 19.1893 322.479 19.68C323.012 20.1493 323.279 20.8 323.279 21.632C323.279 22.3787 323.001 23.0187 322.447 23.552C321.913 24.0853 321.135 24.352 320.111 24.352Z" fill="white"/>
</svg>
