<svg width="20" height="26" viewBox="0 0 20 26" fill="none" xmlns="http://www.w3.org/2000/svg">
<g id="Group 491">
<path id="Vector 4142" d="M13.7506 10.8052C13.7481 10.7965 13.7458 10.7879 13.7439 10.7797C13.6107 10.2781 13.2057 9.18365 12.8045 8.16144C12.6049 7.65307 12.4103 7.17262 12.258 6.80857C12.1817 6.62624 12.1169 6.4752 12.0678 6.36526C12.0431 6.31002 12.0237 6.26787 12.0094 6.2385C12.0041 6.22755 12.0004 6.22017 11.9981 6.21568L11.9914 6.20589L11.9776 6.17967C10.7473 3.83023 9.62205 2.5276 8.8904 1.84578C8.89996 2.88545 8.64431 4.46167 7.43439 6.23005C7.02232 6.83233 6.50042 7.34717 5.95856 7.84492C5.80726 7.9839 5.6551 8.12098 5.50226 8.25868C5.09649 8.62423 4.68585 8.99417 4.27346 9.41578C3.16152 10.5526 2.08334 12.023 1.46817 14.4638C0.862711 16.8661 1.35255 19.6076 2.82342 21.7071C4.28309 23.7907 6.71356 25.2507 10.0409 25.1113C13.4447 24.9687 15.5143 23.9094 16.7881 22.4849C18.0733 21.0477 18.6121 19.1684 18.8074 17.2684C19.0007 15.3875 18.7731 14.0238 18.4116 12.9453C18.1402 12.1357 17.7999 11.495 17.4719 10.8772C17.3529 10.6531 17.2355 10.4321 17.1236 10.2071C17.0504 10.0599 16.8366 9.72447 16.5537 9.32578C16.2916 8.95655 15.9915 8.56294 15.732 8.26214C15.7282 8.27186 15.7243 8.28245 15.7205 8.29394C15.5216 8.89826 15.2624 9.55678 15.0542 10.0546C14.9499 10.3041 14.8571 10.5165 14.7893 10.6648C14.756 10.7379 14.7266 10.8002 14.7039 10.8448C14.6944 10.8636 14.6788 10.8938 14.6613 10.9219C14.6563 10.9299 14.6479 10.9429 14.6368 10.9579L14.6367 10.9581C14.6296 10.9678 14.6035 11.0032 14.5621 11.0396C14.5431 11.0563 14.4935 11.098 14.4179 11.1284C14.3391 11.1601 14.1697 11.2015 13.9901 11.1029C13.8239 11.0117 13.7679 10.8639 13.7506 10.8052Z" fill="#FF002A" stroke="url(#paint0_linear_215_227)" stroke-linecap="round"/>
</g>
<defs>
<linearGradient id="paint0_linear_215_227" x1="15.8801" y1="10.1087" x2="1.71274" y2="-0.516811" gradientUnits="userSpaceOnUse">
<stop stop-color="white"/>
<stop offset="1" stop-color="white" stop-opacity="0"/>
</linearGradient>
</defs>
</svg>
